<?xml version="1.0" encoding="UTF-8" standalone="no"?>
<!DOCTYPE svg PUBLIC "-//W3C//DTD SVG 1.1//EN"
"http://www.w3.org/Graphics/SVG/1.1/DTD/svg11.dtd">


<!-- Page 3 -->
<svg x="0" y="0" width="433" height="433" viewBox="0 0 433 433" version="1.1" xmlns="http://www.w3.org/2000/svg" xmlns:xlink="http://www.w3.org/1999/xlink"
style="display: block;margin-left: auto;margin-right: auto;">
<defs>
<clipPath id="c0_3"><path d="M131.4,255.8L131.4,74l178.7,0l0,181.8Z" /></clipPath>

<style type="text/css"><![CDATA[

.g1_3{
fill: #092939;
}
.g2_3{
fill: #F0B01A;
fill-opacity: 0.800003;
}
.g3_3{
fill: #231F20;
}
.g4_3{
fill: none;
stroke: #E9DF76;
stroke-width: 1.1947222;
stroke-linecap: butt;
stroke-linejoin: miter;
}
.g5_3{
fill: none;
stroke: #E9DF76;
stroke-width: 1.6943055;
stroke-linecap: butt;
stroke-linejoin: miter;
}
.g6_3{
fill: none;
stroke: #E9DF76;
stroke-width: 2.4047222;
stroke-linecap: butt;
stroke-linejoin: miter;
}
.g7_3{
fill: none;
stroke: #E9DF76;
stroke-width: 3.4726388;
stroke-linecap: butt;
stroke-linejoin: miter;
}
.g8_3{
fill: #F9DAA1;
fill-opacity: 0.89999396;
}
.g9_3{
fill: #FBE7C0;
fill-opacity: 0.89999396;
}
.g10_3{
fill: #FCECCC;
fill-opacity: 0.89999396;
}
.g11_3{
fill: #FBE9C5;
fill-opacity: 0.89999396;
}
.g12_3{
fill: #FADEAC;
fill-opacity: 0.89999396;
}
.g13_3{
fill: #FAE0B0;
fill-opacity: 0.89999396;
}
.g14_3{
fill: #F7D188;
fill-opacity: 0.89999396;
}
.g15_3{
fill: #F8D593;
fill-opacity: 0.89999396;
}
.g16_3{
fill: #F8D799;
fill-opacity: 0.89999396;
}
.g17_3{
fill: #FDF4E1;
fill-opacity: 0.89999396;
}
.g18_3{
fill: #FCF1DA;
fill-opacity: 0.89999396;
}
.g19_3{
fill: #F0B01A;
fill-opacity: 0.699997;
}
.g20_3{
fill: none;
stroke: #F8D38F;
stroke-width: 0.15277778;
stroke-linecap: butt;
stroke-linejoin: miter;
stroke-miterlimit: 4;
stroke-opacity: 0.699997;
}
.g21_3{
fill: none;
stroke: #F0B01A;
stroke-width: 0.15277778;
stroke-linecap: butt;
stroke-linejoin: miter;
stroke-miterlimit: 4;
stroke-opacity: 0.699997;
}


]]></style>

</defs>
<path d="M0,0
L0,433
L433,433
L433,0 Z " 
fill="#FFFFFF" stroke="none" />
<path d="M55.1,305.1l0,-17.3l-6.5,0l0,-1.4l14.2,0l0,1.4l-6.3,0l0,17.3Z" class="g1_3" />
<path d="M73.6,305.5c-4.5,0,-7.2,-3.5,-7.2,-6.9l0,-12.2l1.4,0l0,12.1c0,2.8,2.2,5.6,5.8,5.6c2.8,0,5.6,-2.2,5.6,-5.7l0,-12l1.4,0l0,12c0,4.4,-3.6,7.1,-7,7.1Z" class="g1_3" />
<path d="M96,299.8c0,-1.8,-1.3,-3.9,-3.5,-3.9l-4.3,0l0,7.9l3.9,0c2,0,3.9,-1.5,3.9,-4m-3.9,-5.3c1.5,-0.2,2.8,-1.5,2.8,-3.4c0,-1.6,-1.3,-3.3,-3.5,-3.3l-3.2,0l0,6.7Zm5.3,5.2c0,3.4,-2.6,5.4,-5.2,5.4l-5.4,0l0,-18.7l4.6,0c3.1,0,4.9,2.4,4.9,4.7c0,1.6,-0.6,2.4,-0.9,2.7c-0.3,0.3,-1.2,0.9,-1.7,1c0.8,0.1,3.7,1.7,3.7,4.9Z" class="g1_3" />
<path d="M102.9,286.4l1.4,0l0,18.7l-1.4,0l0,-18.7Z" class="g1_3" />
<path d="M114.7,305.7c-2,0,-5.5,-0.9,-5.9,-5.9l1.4,-0.1c0.3,3.9,2.8,4.6,4.5,4.6c2.9,0,4.7,-2.4,4.7,-4.4c0,-1.7,-0.8,-2.8,-5.1,-3.9c-2.4,-0.6,-4.6,-2,-4.6,-4.8c0,-3.7,3,-5.1,5,-5.1c3.2,0,5.2,2.3,5.3,5.1l-1.4,0.1c-0.1,-2.2,-1.5,-3.9,-3.8,-3.9c-1.7,0,-3.7,1.2,-3.7,3.7c0,2.1,1.6,3,3.6,3.5c5,1.3,6.1,3,6.1,5.3c0,2.7,-2.2,5.8,-6.1,5.8Z" class="g1_3" />
<path d="M144.2,285.8l0,19.3l-1.4,0l0,-15.5l-7.8,9.3l-7.8,-9.3l0,15.5l-1.4,0l0,-19.3l9.2,10.9Z" class="g1_3" />
<path d="M158.5,287.3c-4.3,0,-8.4,3.4,-8.4,8.5c0,4.3,3.4,8.4,8.5,8.4c4.3,0,8.4,-3.4,8.4,-8.5c0,-4.6,-3.6,-8.4,-8.5,-8.4m0,-1.4c5.8,0,9.9,4.6,9.9,9.8c0,5.8,-4.7,9.9,-9.8,9.9c-5.9,0,-9.9,-4.7,-9.9,-9.8c0,-5.9,4.6,-9.9,9.8,-9.9Z" class="g1_3" />
<path d="M192.5,299.8c0,-1.8,-1.4,-3.9,-3.6,-3.9l-4.3,0l0,7.9l4,0c1.9,0,3.9,-1.5,3.9,-4m-3.9,-5.3c1.4,-0.2,2.8,-1.5,2.8,-3.4c0,-1.6,-1.4,-3.3,-3.5,-3.3l-3.3,0l0,6.7Zm5.3,5.2c0,3.4,-2.7,5.4,-5.3,5.4l-5.4,0l0,-18.7l4.7,0c3.1,0,4.9,2.4,4.9,4.7c0,1.6,-0.6,2.4,-1,2.7c-0.2,0.3,-1.2,0.9,-1.6,1c0.8,0.1,3.7,1.7,3.7,4.9Z" class="g1_3" />
<path d="M206,298.3c-0.7,0,-1.5,-0.2,-1.6,-0.2l6.5,6.5l-1,1l-8.5,-8.5l3.8,0c2.2,0,4.5,-1.7,4.5,-4.7c0,-2.2,-1.6,-4.6,-4.6,-4.6l-4.3,0l0,17.3l-1.4,0l0,-18.7l5.7,0c3.8,0,6,3.1,6,6c0,3.2,-2.4,5.9,-5.1,5.9Z" class="g1_3" />
<path d="M223.5,289.1l-3.8,8l7.5,0Zm0,-3.3l8.9,19.1l-1.3,0.6l-3.2,-7l-8.8,0l-3.2,7l-1.3,-0.6Z" class="g1_3" />
<path d="M240.9,305.7c-1.9,0,-5.4,-0.9,-5.8,-5.9l1.4,-0.1c0.3,3.9,2.8,4.6,4.4,4.6c3,0,4.7,-2.4,4.7,-4.4c0,-1.7,-0.7,-2.8,-5,-3.9c-2.4,-0.6,-4.7,-2,-4.7,-4.8c0,-3.7,3,-5.1,5.1,-5.1c3.2,0,5.1,2.3,5.3,5.1l-1.4,0.1c-0.1,-2.2,-1.6,-3.9,-3.9,-3.9c-1.7,0,-3.7,1.2,-3.7,3.7c0,2.1,1.7,3,3.6,3.5c5,1.3,6.1,3,6.1,5.3c0,2.7,-2.2,5.8,-6.1,5.8Z" class="g1_3" />
<path d="M256.2,305.7c-2,0,-5.4,-0.9,-5.8,-5.9l1.4,-0.1c0.3,3.9,2.8,4.6,4.4,4.6c3,0,4.7,-2.4,4.7,-4.4c0,-1.7,-0.8,-2.8,-5,-3.9c-2.4,-0.6,-4.7,-2,-4.7,-4.8c0,-3.7,3,-5.1,5.1,-5.1c3.1,0,5.1,2.3,5.3,5.1l-1.4,0.1c-0.1,-2.2,-1.6,-3.9,-3.9,-3.9c-1.7,0,-3.7,1.2,-3.7,3.7c0,2.1,1.7,3,3.6,3.5c5,1.3,6.1,3,6.1,5.3c0,2.7,-2.2,5.8,-6.1,5.8Z" class="g1_3" />
<path d="M294.3,295.7c0,-4.6,-3.6,-8.4,-8.6,-8.4c-4.3,0,-8.4,3.4,-8.4,8.5c0,4.3,3.4,8.4,8.6,8.4c4.3,0,8.4,-3.4,8.4,-8.5m-1.5,7.1l2.8,2.8l-1,1l-2.9,-2.9c-1.7,1.2,-3.7,1.9,-5.8,1.9c-5.9,0,-9.9,-4.7,-9.9,-9.8c0,-5.9,4.6,-9.9,9.7,-9.9c5.9,0,10,4.6,10,9.8c0,2.5,-0.9,5.1,-2.9,7.1Z" class="g1_3" />
<path d="M308,305.5c-4.4,0,-7.2,-3.5,-7.2,-6.9l0,-12.2l1.4,0l0,12.1c0,2.8,2.2,5.6,5.8,5.6c2.8,0,5.6,-2.2,5.6,-5.7l0,-12l1.4,0l0,12c0,4.4,-3.5,7.1,-7,7.1Z" class="g1_3" />
<path d="M321.2,286.4l1.4,0l0,18.7l-1.4,0l0,-18.7Z" class="g1_3" />
<path d="M342.3,302l0,-15.6l1.4,0l0,19.4L330.2,289.6l0,15.5l-1.4,0l0,-19.3Z" class="g1_3" />
<path d="M353.8,305.1l0,-17.3l-6.5,0l0,-1.4l14.2,0l0,1.4l-6.3,0l0,17.3Z" class="g1_3" />
<path d="M372.2,295.9l-5.7,0l0,7.9l8.1,0l0,1.3l-9.5,0l0,-18.7l8.5,0l0,1.4l-7.1,0l0,6.7l5.7,0Z" class="g1_3" />
<path d="M384.1,305.1l0,-17.3l-6.4,0l0,-1.4l14.2,0l0,1.4l-6.4,0l0,17.3Z" class="g1_3" />
<path d="M157.4,290.1c-0.3,-0.1,-0.7,-0.1,-1.2,0c-0.5,0.1,-1.1,0.3,-1.6,0.7c-0.6,0.3,-1,0.8,-1.4,1.3c-0.4,0.5,-0.7,0.9,-0.9,1.4c-0.1,0.3,-0.2,0.5,-0.3,0.8c-0.1,0.2,-0.1,0.5,-0.2,0.7c0,0.1,0,0,0.1,-0.3c0,-0.1,0,-0.3,0.1,-0.5c0.1,-0.2,0.2,-0.5,0.3,-0.7c0.2,-0.5,0.6,-1,0.9,-1.6c-0.3,0.3,-0.6,0.6,-0.9,0.9c-0.3,0.4,-0.5,0.7,-0.7,1c-0.2,0.4,-0.2,1,-0.3,1.4c-0.2,2.3,0.7,4.5,2.4,6c0.5,0.7,2.1,1.5,2.9,1.8c0,0,-0.6,-0.1,-1.5,-0.6c-0.4,-0.2,-0.9,-0.5,-1.3,-0.9c-0.3,-0.2,-0.5,-0.3,-0.7,-0.6c-0.2,-0.2,-0.4,-0.5,-0.6,-0.7c-0.5,-0.5,-0.7,-1.1,-1,-1.6c-0.1,-0.6,-0.3,-1.1,-0.4,-1.6C151,296.5,151,296.1,151,295.9c0,-0.3,0,-0.5,0,-0.5c-0.1,0.1,-0.1,0.2,-0.1,0.3c0,0,0,0.3,0.1,0.8c-0.1,0.6,0.2,1.2,0.3,1.9c0.2,0.6,0.6,1.2,0.8,1.7c0.3,0.4,0.5,0.6,0.5,0.6c0.2,0.3,0.4,0.5,0.7,0.8c0,0,-0.2,-0.2,-0.4,-0.4l-0.3,-0.4c-0.5,-0.6,-1,-1.2,-1.4,-2c-0.2,-0.6,-0.3,-1.2,-0.4,-1.7c0,-0.5,0.1,-0.9,0.1,-1.3c0,0,0.1,-0.8,0.1,-0.8c0,-0.1,0,-0.1,0,-0.2c-0.3,0.2,-0.8,2.2,-0.2,4.3c0.2,0.5,0.4,1,0.7,1.5c0.2,0.4,0.5,0.8,0.8,1.2c0.6,0.6,1.2,1.1,1.5,1.2c0.4,0.3,0.9,0.4,1.4,0.5c0.5,0,1,0,1.6,0.2c0.3,0,0.6,0.2,0.9,0.1c0,-0.1,0.2,-0.1,0.3,-0.1c0.7,0,1.4,0.1,1.9,-0.1c0.3,-0.1,1.7,0.6,1.7,0.4c0.1,-0.9,0.1,-0.2,0.9,-0.6c0.2,0,0.3,-0.5,0.5,-0.6c0.8,-0.2,0.8,-0.6,1.4,-1.2c0.6,-1.1,1.3,-1.1,1.4,-2.3c-0.1,-0.1,0.1,-0.5,0.2,-1c0,-0.4,0.1,-0.8,0.1,-0.8c0.2,-0.6,0.1,-1.2,0.1,-1.7c0,-0.5,0,-0.9,0.2,-1.4c-0.3,-0.6,-0.5,-1.2,-0.7,-1.9c-0.3,-0.6,-0.4,-1.4,-0.9,-1.8c-0.5,-0.5,-0.7,-0.9,-0.9,-1.2c-0.3,-0.4,-0.5,-0.8,-1,-1.2c-0.2,-0.3,-0.5,-0.3,-0.6,-0.5c-0.1,-0.2,-0.7,-0.2,-1,-0.3l0.1,-0.2c-0.1,0,-0.3,-0.1,-0.4,-0.2c-0.1,0,0,-0.1,0,-0.1c0.1,-0.1,0.2,-0.3,0,-0.4c-0.5,-0.3,-1,-0.5,-1.5,-0.6c-0.6,0.1,-1.1,0.1,-1.6,0.3c-0.1,0.1,-0.1,0.2,-0.2,0.3l-0.4,0.2c0,0.2,0,0.5,0,0.6c0.1,0.6,-0.3,1.2,-0.1,1.7c0.1,0.2,0.7,0.1,1,0.4c0,0.1,-0.1,0.3,-0.1,0.5c0.3,0,0.3,0.2,0.2,0.4c0.1,0,0.1,0,0.1,0c0,0.1,0,0.3,0,0.3c0.3,0.1,0.7,0.4,1,0.5c0.3,0.2,0.6,0.3,0.9,0.3c0.1,0.1,0.4,0,0.6,0c0.1,0,0.2,0.2,0.2,0.2c0.2,0,0.3,-0.2,0.5,-0.4c0.4,0.5,0.7,1.6,1.3,1.1c0.3,0.4,0.5,0.3,0.8,0.7c0.4,0.6,0.7,1.4,0.7,2.3c0.1,0.4,0,0.9,0,1.3c0,0.2,-0.1,0.3,-0.1,0.5c-0.5,1.6,-1.6,2.8,-2.9,3.4c-1.2,0.7,-2.6,1,-4.3,0.9c-1.7,-0.1,-3.4,-1.3,-4.2,-2.9c-0.8,-1.5,-0.8,-3.4,-0.2,-4.7c0.6,-1.4,1.5,-2.3,2.4,-2.7c0.4,-0.3,0.9,-0.4,1.2,-0.5c0.3,-0.1,0.6,-0.1,0.8,-0.1Z" class="g2_3" />
<path d="M83.8,328.1l0,-8l-3,0l0,-0.7l6.6,0l0,0.7l-3,0l0,8Z" class="g3_3" />
<path d="M89.3,321.9l0.6,0l0,6.2l-0.6,0l0,-6.2Zm0.3,-2.2c0.3,0,0.6,0.2,0.6,0.6c0,0.3,-0.3,0.5,-0.6,0.5c-0.3,0,-0.6,-0.2,-0.6,-0.5c0,-0.4,0.3,-0.6,0.6,-0.6Z" class="g3_3" />
<path d="M98.6,323.8l0,4.3l-0.6,0l0,-4.3c0,-0.8,-0.6,-1.6,-1.6,-1.6c-1.7,0,-2.8,1.3,-2.8,2.7l0,3.2l-0.6,0l0,-6.2l0.6,0l0,1.5c0.2,-0.7,1.6,-1.7,2.8,-1.7c1.4,0,2.2,1,2.2,2.1Z" class="g3_3" />
<path d="M104.1,322.2c-1.3,0,-2.6,1.1,-2.6,2.8c0,1.4,1.1,2.7,2.7,2.7c0.8,0,1.6,-0.4,2.1,-1l0,-3.5c-0.5,-0.5,-1.2,-1,-2.2,-1m0,-0.5c1.1,0,1.8,0.4,2.2,1l0,-0.8l0.6,0l0,6.2l-0.6,0l0,-0.9c-0.5,0.7,-1.2,1.1,-2.1,1.1c-2,0,-3.3,-1.6,-3.3,-3.3c0,-2,1.5,-3.3,3.2,-3.3Z" class="g3_3" />
<path d="M114.5,319.4l0.6,0l0,3.8l4.6,0l0,-3.8l0.7,0l0,8.7l-0.7,0l0,-4.3l-4.6,0l0,4.3l-0.6,0Z" class="g3_3" />
<path d="M125.9,322.2c-1.4,0,-2.7,1.1,-2.7,2.8c0,1.4,1.1,2.7,2.8,2.7c1.4,0,2.7,-1.1,2.7,-2.8c0,-1.4,-1.1,-2.7,-2.8,-2.7m0,-0.5c2,0,3.4,1.5,3.4,3.2c0,2,-1.6,3.4,-3.3,3.4c-2,0,-3.3,-1.6,-3.3,-3.3c0,-2,1.5,-3.3,3.2,-3.3Z" class="g3_3" />
<path d="M134.9,321.7l0,0.5c-1.7,0,-2.8,1.3,-2.8,2.7l0,3.2l-0.6,0l0,-6.2l0.6,0l0,1.5c0.2,-0.7,1.6,-1.7,2.8,-1.7Z" class="g3_3" />
<path d="M138.9,327l2.5,-5.3l0.5,0.2l-3,6.5l-3,-6.5l0.5,-0.2Z" class="g3_3" />
<path d="M146.5,322.2c-1.3,0,-2.6,1.1,-2.6,2.8c0,1.4,1.1,2.7,2.7,2.7c0.8,0,1.6,-0.4,2.1,-1l0,-3.5c-0.5,-0.5,-1.2,-1,-2.2,-1m0,-0.5c1.1,0,1.7,0.4,2.2,1l0,-0.8l0.6,0l0,6.2l-0.6,0l0,-0.9c-0.5,0.7,-1.2,1.1,-2.1,1.1c-2,0,-3.3,-1.6,-3.3,-3.3c0,-2,1.5,-3.3,3.2,-3.3Z" class="g3_3" />
<path d="M152.1,326.1l0,-3.6l-0.6,0l0,-0.6l0.6,0l0,-1.8l0.6,0l0,1.8l2.8,0l0,0.6l-2.8,0l0,3.5c0,0.8,0.7,1.6,1.7,1.6c0.3,0,0.5,0,0.8,-0.2l0.3,0.5c-0.3,0.2,-0.7,0.3,-1.1,0.3c-1.4,0,-2.3,-1.1,-2.3,-2.1Z" class="g3_3" />
<path d="M161.7,329.6l4.1,-11.2l0.6,0.3l-4.1,11.1Z" class="g3_3" />
<path d="M177.6,317.2l-1.7,1.5l-1.7,-1.5l0.4,-0.5l1.3,1.2l1.3,-1.2Zm2.1,10.3l0,0.6l-8.3,0l6.7,-8l-5.8,0l0,-0.7l7.2,0l-6.7,8.1Z" class="g3_3" />
<path d="M181.7,321.9l0.6,0l0,6.2l-0.6,0l0,-6.2Zm0.3,-2.2c0.3,0,0.5,0.2,0.5,0.6c0,0.3,-0.2,0.5,-0.5,0.5c-0.3,0,-0.6,-0.2,-0.6,-0.5c0,-0.4,0.3,-0.6,0.6,-0.6Z" class="g3_3" />
<path d="M187.5,327l2.5,-5.3l0.5,0.2l-3,6.5l-3,-6.5l0.5,-0.2Z" class="g3_3" />
<path d="M195.2,322.2c-1.4,0,-2.7,1.1,-2.7,2.8c0,1.4,1.1,2.7,2.7,2.7c0.8,0,1.6,-0.4,2.1,-1l0,-3.5c-0.5,-0.5,-1.2,-1,-2.1,-1m0,-0.5c1,0,1.7,0.4,2.1,1l0,-0.8l0.6,0l0,6.2l-0.6,0l0,-0.9c-0.5,0.7,-1.2,1.1,-2.1,1.1c-2,0,-3.3,-1.6,-3.3,-3.3c0,-2,1.6,-3.3,3.3,-3.3Z" class="g3_3" />
<path d="M211.6,327.8l-0.4,0.5l-4.8,-4.8l4.2,-4.2l0.4,0.4l-3.7,3.8Zm-6.1,-8.4l0.7,0l0,8.7l-0.7,0l0,-8.7Z" class="g3_3" />
<path d="M216.4,322.2c-1.4,0,-2.6,1.1,-2.6,2.8c0,1.4,1.1,2.7,2.7,2.7c1.4,0,2.7,-1.1,2.7,-2.8c0,-1.4,-1.1,-2.7,-2.8,-2.7m0,-0.5c2,0,3.4,1.5,3.4,3.2c0,2,-1.6,3.4,-3.3,3.4c-2,0,-3.3,-1.6,-3.3,-3.3c0,-2,1.5,-3.3,3.2,-3.3Z" class="g3_3" />
<path d="M229.1,321.7c1.4,0,2.2,1,2.2,2.1l0,4.3l-0.6,0l0,-4.3c0,-0.8,-0.6,-1.6,-1.6,-1.6c-0.9,0,-1.6,0.5,-2.1,1l0,0.4c0,0,0,0.1,0,0.2l0,4.3l-0.6,0l0,-4.3c0,-0.8,-0.6,-1.6,-1.6,-1.6c-1,0,-1.7,0.5,-2.2,1l0,4.9l-0.6,0l0,-6.2l0.6,0l0,0.8c0.5,-0.6,1.1,-1,2.2,-1c0.9,0,1.6,0.5,2,1.2l0.2,-0.3c0.4,-0.7,1.1,-0.9,2.1,-0.9Z" class="g3_3" />
<path d="M236.9,322.2c-1.4,0,-2.7,1.1,-2.7,2.8c0,1.4,1.1,2.7,2.7,2.7c0.8,0,1.6,-0.4,2.1,-1l0,-3.5c-0.5,-0.5,-1.2,-1,-2.1,-1m0,-0.5c1,0,1.7,0.4,2.1,1l0,-0.8l0.6,0l0,6.2l-0.6,0l0,-0.9c-0.4,0.7,-1.1,1.1,-2.1,1.1c-2,0,-3.3,-1.6,-3.3,-3.3c0,-2,1.6,-3.3,3.3,-3.3Z" class="g3_3" />
<path d="M245.8,321.7l0,0.5c-1.6,0,-2.7,1.3,-2.7,2.7l0,3.2l-0.6,0l0,-6.2l0.6,0l0,1.5c0.1,-0.7,1.5,-1.7,2.7,-1.7Z" class="g3_3" />
<path d="M251.8,329.6l4.1,-11.2l0.5,0.3l-4.1,11.1Z" class="g3_3" />
<path d="M265.9,320.7l-1.7,3.7l3.4,0Zm0,-1.5L270,328l-0.6,0.2L267.9,325l-4,0l-1.5,3.2L261.8,328Z" class="g3_3" />
<path d="M279.1,321.7c1.4,0,2.3,1,2.3,2.1l0,4.3l-0.6,0l0,-4.3c0,-0.8,-0.6,-1.6,-1.7,-1.6c-0.9,0,-1.6,0.5,-2.1,1l0,0.4c0,0,0,0.1,0,0.2l0,4.3l-0.6,0l0,-4.3c0,-0.8,-0.6,-1.6,-1.6,-1.6c-0.9,0,-1.7,0.5,-2.2,1l0,4.9l-0.6,0l0,-6.2l0.6,0l0,0.8c0.5,-0.6,1.2,-1,2.2,-1c0.9,0,1.6,0.5,2,1.2l0.2,-0.3c0.4,-0.7,1.1,-0.9,2.1,-0.9Z" class="g3_3" />
<path d="M284.5,321.9l0.6,0l0,6.2l-0.6,0l0,-6.2Zm0.3,-2.2c0.3,0,0.6,0.2,0.6,0.6c0,0.3,-0.3,0.5,-0.6,0.5c-0.3,0,-0.6,-0.2,-0.6,-0.5c0,-0.4,0.3,-0.6,0.6,-0.6Z" class="g3_3" />
<path d="M293.8,323.8l0,4.3l-0.6,0l0,-4.3c0,-0.8,-0.6,-1.6,-1.6,-1.6c-1.7,0,-2.8,1.3,-2.8,2.7l0,3.2l-0.6,0l0,-6.2l0.6,0l0,1.5c0.2,-0.7,1.6,-1.7,2.8,-1.7c1.4,0,2.2,1,2.2,2.1Z" class="g3_3" />
<path d="M299.3,322.2c-1.4,0,-2.7,1.1,-2.7,2.8c0,1.4,1.1,2.7,2.8,2.7c0.8,0,1.6,-0.4,2.1,-1l0,-3.5c-0.5,-0.5,-1.3,-1,-2.2,-1m0,-0.5c1,0,1.7,0.4,2.2,1l0,-0.8l0.6,0l0,6.2l-0.6,0l0,-0.9c-0.5,0.7,-1.2,1.1,-2.1,1.1c-2,0,-3.3,-1.6,-3.3,-3.3c0,-2,1.5,-3.3,3.2,-3.3Z" class="g3_3" />
<path d="M314,325.6c0,-0.8,-0.6,-1.8,-1.7,-1.8l-2,0l0,3.7l1.9,0c0.9,0,1.8,-0.7,1.8,-1.9m-1.8,-2.4c0.6,-0.1,1.3,-0.7,1.3,-1.6c0,-0.8,-0.7,-1.5,-1.6,-1.5l-1.6,0l0,3.1Zm2.4,2.4c0,1.6,-1.2,2.5,-2.4,2.5l-2.5,0l0,-8.7l2.2,0c1.4,0,2.2,1.1,2.2,2.2c0,0.8,-0.3,1.1,-0.4,1.3c-0.2,0.1,-0.6,0.4,-0.8,0.4c0.4,0,1.7,0.8,1.7,2.3Z" class="g3_3" />
<path d="M322.2,323.5c-0.5,-0.7,-1.3,-1.3,-2.4,-1.3c-1.2,0,-2.3,0.9,-2.6,2.2Zm-2.3,4.2c0.5,0,1,-0.2,1.4,-0.4l0.3,0.5c-0.5,0.3,-1.1,0.5,-1.7,0.5c-2,0,-3.3,-1.6,-3.3,-3.3c0,-2,1.6,-3.3,3.2,-3.3c1.6,0,2.8,1,3.2,2.3l-5.8,1c0,1.4,1.1,2.7,2.7,2.7Z" class="g3_3" />
<path d="M325,318.6l0.6,0l0,9.5l-0.6,0l0,-9.5Z" class="g3_3" />
<path d="M331.1,322.2c-1.4,0,-2.6,1.1,-2.6,2.8c0,1.4,1,2.7,2.7,2.7c1.4,0,2.7,-1.1,2.7,-2.8c0,-1.4,-1.1,-2.7,-2.8,-2.7m0,-0.5c2,0,3.4,1.5,3.4,3.2c0,2,-1.6,3.4,-3.3,3.4c-2,0,-3.3,-1.6,-3.3,-3.3c0,-2,1.5,-3.3,3.2,-3.3Z" class="g3_3" />
<path d="M338.8,327l2.5,-5.3l0.6,0.2l-3.1,6.5l-3,-6.5l0.6,-0.2Z" class="g3_3" />
<path d="M346.5,322.2c-1.4,0,-2.7,1.1,-2.7,2.8c0,1.4,1.1,2.7,2.7,2.7c0.9,0,1.6,-0.4,2.1,-1l0,-3.5c-0.5,-0.5,-1.2,-1,-2.1,-1m0,-0.5c1,0,1.7,0.4,2.1,1l0,-0.8l0.6,0l0,6.2l-0.6,0l0,-0.9c-0.4,0.7,-1.1,1.1,-2,1.1c-2,0,-3.4,-1.6,-3.4,-3.3c0,-2,1.6,-3.3,3.3,-3.3Z" class="g3_3" />
<path d="M355.4,321.7l0,0.5c-1.6,0,-2.7,1.3,-2.7,2.7l0,3.2l-0.6,0l0,-6.2l0.6,0l0,1.5c0.1,-0.7,1.5,-1.7,2.7,-1.7Z" class="g3_3" />
<path d="M357.6,321.9l0.6,0l0,6.2l-0.6,0l0,-6.2Zm0.3,-2.2c0.3,0,0.6,0.2,0.6,0.6c0,0.3,-0.3,0.5,-0.6,0.5c-0.3,0,-0.6,-0.2,-0.6,-0.5c0,-0.4,0.3,-0.6,0.6,-0.6Z" class="g3_3" />
<path d="M139,339.9c0,-0.8,-0.6,-1.8,-1.7,-1.8l-2,0l0,3.7l1.9,0c0.9,0,1.8,-0.7,1.8,-1.9m-1.8,-2.4c0.6,-0.1,1.3,-0.7,1.3,-1.6c0,-0.8,-0.7,-1.5,-1.6,-1.5l-1.6,0l0,3.1Zm2.4,2.4c0,1.6,-1.2,2.5,-2.4,2.5l-2.5,0l0,-8.7l2.2,0c1.4,0,2.2,1.1,2.2,2.2c0,0.8,-0.3,1.1,-0.4,1.3c-0.2,0.1,-0.6,0.4,-0.8,0.4c0.4,0,1.7,0.8,1.7,2.3Z" class="g3_3" />
<path d="M144.8,336.5c-1.3,0,-2.6,1.1,-2.6,2.8c0,1.4,1.1,2.7,2.7,2.7c0.8,0,1.6,-0.4,2.1,-1l0,-3.5c-0.5,-0.5,-1.2,-1,-2.2,-1m0,-0.5c1.1,0,1.7,0.4,2.2,1l0,-0.8l0.6,0l0,6.2l-0.6,0l0,-0.9c-0.5,0.7,-1.2,1.1,-2.1,1.1c-2,0,-3.3,-1.6,-3.3,-3.3c0,-2,1.5,-3.3,3.2,-3.3Z" class="g3_3" />
<path d="M153.8,336l0,0.5c-1.7,0,-2.8,1.3,-2.8,2.7l0,3.2l-0.6,0l0,-6.2l0.6,0l0,1.5c0.2,-0.7,1.6,-1.7,2.8,-1.7Z" class="g3_3" />
<path d="M156.3,341c0.5,0.6,1.3,1,2.1,1c1.6,0,2.7,-1.3,2.7,-2.7c0,-1.7,-1.3,-2.8,-2.7,-2.8c-0.9,0,-1.6,0.5,-2.1,1Zm2.1,1.6c-1,0,-1.7,-0.4,-2.1,-1.1l0,0.9l-0.6,0l0,-9.5l0.6,0l0,4.1c0.4,-0.6,1.1,-1,2.1,-1c1.7,0,3.3,1.3,3.3,3.3c0,1.7,-1.3,3.3,-3.3,3.3Z" class="g3_3" />
<path d="M166.6,336.5c-1.4,0,-2.6,1.1,-2.6,2.8c0,1.4,1.1,2.7,2.7,2.7c0.8,0,1.6,-0.4,2.1,-1l0,-3.5c-0.5,-0.5,-1.3,-1,-2.2,-1m0,-0.5c1.1,0,1.7,0.4,2.2,1l0,-0.8l0.6,0l0,6.2l-0.6,0l0,-0.9c-0.5,0.7,-1.2,1.1,-2.1,1.1c-2,0,-3.3,-1.6,-3.3,-3.3c0,-2,1.5,-3.3,3.2,-3.3Z" class="g3_3" />
<path d="M175.6,336l0,0.5c-1.7,0,-2.8,1.3,-2.8,2.7l0,3.2l-0.6,0l0,-6.2l0.6,0l0,1.5c0.2,-0.7,1.6,-1.7,2.8,-1.7Z" class="g3_3" />
<path d="M180.2,336.5c-1.4,0,-2.7,1.1,-2.7,2.8c0,1.4,1.1,2.7,2.7,2.7c0.8,0,1.6,-0.4,2.1,-1l0,-3.5c-0.5,-0.5,-1.2,-1,-2.1,-1m0,-0.5c1,0,1.7,0.4,2.1,1l0,-0.8l0.6,0l0,6.2l-0.6,0l0,-0.9c-0.5,0.7,-1.2,1.1,-2.1,1.1c-2,0,-3.3,-1.6,-3.3,-3.3c0,-2,1.6,-3.3,3.3,-3.3Z" class="g3_3" />
<path d="M194.3,333l-0.4,-0.4l1.8,-1.9l0.5,0.6Zm0,9c1,0,2,-0.4,2.8,-1.2l0.4,0.5c-0.8,0.8,-2,1.3,-3.2,1.3c-2.7,0,-4.6,-2.1,-4.6,-4.5c0,-2.7,2.2,-4.6,4.6,-4.6c1.3,0,2.5,0.5,3.3,1.3l-0.5,0.5c-0.7,-0.7,-1.7,-1.2,-2.8,-1.2c-2.1,0,-3.9,1.7,-3.9,4c0,2.1,1.7,3.9,3.9,3.9Z" class="g3_3" />
<path d="M202.8,336.5c-1.4,0,-2.7,1.1,-2.7,2.8c0,1.4,1.1,2.7,2.8,2.7c0.8,0,1.5,-0.4,2,-1l0,-3.5c-0.4,-0.5,-1.2,-1,-2.1,-1m0,-0.5c1,0,1.7,0.4,2.1,1l0,-0.8l0.6,0l0,6.2l-0.6,0l0,-0.9c-0.4,0.7,-1.1,1.1,-2,1.1c-2,0,-3.4,-1.6,-3.4,-3.3c0,-2,1.6,-3.3,3.3,-3.3Z" class="g3_3" />
<path d="M210.5,341.3L213,336l0.5,0.2l-3,6.5l-3,-6.5L208,336Z" class="g3_3" />
<path d="M218.2,336.5c-1.4,0,-2.7,1.1,-2.7,2.8c0,1.4,1.1,2.7,2.7,2.7c0.8,0,1.6,-0.4,2.1,-1l0,-3.5c-0.5,-0.5,-1.2,-1,-2.1,-1m0,-0.5c1,0,1.7,0.4,2.1,1l0,-0.8l0.6,0l0,6.2l-0.6,0l0,-0.9c-0.5,0.7,-1.2,1.1,-2.1,1.1c-2,0,-3.3,-1.6,-3.3,-3.3c0,-2,1.6,-3.3,3.3,-3.3Z" class="g3_3" />
<path d="M227.1,336l0,0.5c-1.6,0,-2.7,1.3,-2.7,2.7l0,3.2l-0.6,0l0,-6.2l0.6,0l0,1.5c0.1,-0.7,1.5,-1.7,2.7,-1.7Z" class="g3_3" />
<path d="M233.1,343.9l4,-11.2l0.6,0.3l-4.1,11.1Z" class="g3_3" />
<path d="M252.4,333.4l0,9l-0.7,0l0,-7.2l-3.5,4.3l-3.7,-4.3l0,7.2l-0.6,0l0,-9l4.3,5.1Z" class="g3_3" />
<path d="M255.5,336.2l0.6,0l0,6.2l-0.6,0l0,-6.2Zm0.3,-2.2c0.3,0,0.6,0.2,0.6,0.6c0,0.3,-0.3,0.5,-0.6,0.5c-0.3,0,-0.5,-0.2,-0.5,-0.5c0,-0.4,0.2,-0.6,0.5,-0.6Z" class="g3_3" />
<path d="M261.9,336.5c-1.4,0,-2.6,1.1,-2.6,2.8c0,1.4,1.1,2.7,2.7,2.7c0.8,0,1.6,-0.4,2.1,-1l0,-3.5c-0.5,-0.5,-1.3,-1,-2.2,-1m0,-0.5c1.1,0,1.7,0.4,2.2,1l0,-0.8l0.6,0l0,6.2l-0.6,0l0,-0.9c-0.5,0.7,-1.2,1.1,-2.1,1.1c-2,0,-3.3,-1.6,-3.3,-3.3c0,-2,1.5,-3.3,3.2,-3.3Z" class="g3_3" />
<path d="M276,333l-0.3,-0.4l1.8,-1.9l0.5,0.6Zm0.1,9c1,0,2,-0.4,2.7,-1.2l0.5,0.5c-0.8,0.8,-2,1.3,-3.2,1.3c-2.7,0,-4.6,-2.1,-4.6,-4.5c0,-2.7,2.2,-4.6,4.5,-4.6c1.4,0,2.5,0.5,3.3,1.3l-0.4,0.5c-0.7,-0.7,-1.7,-1.2,-2.9,-1.2c-2,0,-3.8,1.7,-3.8,4c0,2.1,1.6,3.9,3.9,3.9Z" class="g3_3" />
<path d="M284.6,336.5c-1.4,0,-2.7,1.1,-2.7,2.8c0,1.4,1.1,2.7,2.7,2.7c0.8,0,1.6,-0.4,2.1,-1l0,-3.5c-0.5,-0.5,-1.2,-1,-2.1,-1m0,-0.5c1,0,1.7,0.4,2.1,1l0,-0.8l0.6,0l0,6.2l-0.6,0l0,-0.9c-0.4,0.7,-1.1,1.1,-2.1,1.1c-2,0,-3.3,-1.6,-3.3,-3.3c0,-2,1.6,-3.3,3.3,-3.3Z" class="g3_3" />
<path d="M292.8,335.5l-0.3,-0.4l1.8,-1.9l0.5,0.5Zm0.1,6.5c0.7,0,1.4,-0.4,1.9,-0.9l0.5,0.4c-0.6,0.7,-1.5,1.1,-2.4,1.1c-2,0,-3.3,-1.6,-3.3,-3.3c0,-2,1.5,-3.3,3.2,-3.3c1,0,1.9,0.4,2.5,1l-0.5,0.4c-0.4,-0.5,-1.1,-0.9,-1.9,-0.9c-1.4,0,-2.7,1.1,-2.7,2.8c0,1.4,1.1,2.7,2.7,2.7Z" class="g3_3" />
<path d="M297.7,336.2l0.6,0l0,6.2l-0.6,0l0,-6.2ZM298,334c0.3,0,0.6,0.2,0.6,0.6c0,0.3,-0.3,0.5,-0.6,0.5c-0.3,0,-0.6,-0.2,-0.6,-0.5c0,-0.4,0.3,-0.6,0.6,-0.6Z" class="g3_3" />
<path d="M304.1,335.5l-0.4,-0.4l1.8,-1.9l0.5,0.5Zm0,6.5c0.8,0,1.5,-0.4,2,-0.9l0.4,0.4c-0.6,0.7,-1.5,1.1,-2.3,1.1c-2,0,-3.4,-1.6,-3.4,-3.3c0,-2,1.6,-3.3,3.3,-3.3c1,0,1.8,0.4,2.4,1l-0.4,0.4c-0.5,-0.5,-1.2,-0.9,-2,-0.9c-1.4,0,-2.7,1.1,-2.7,2.8c0,1.4,1.1,2.7,2.7,2.7Z" class="g3_3" />
<path d="M248,162.2c0,15.4,-12.4,27.8,-27.8,27.8c-15.3,0,-27.7,-12.4,-27.7,-27.8c0,-15.3,12.4,-27.8,27.7,-27.8c15.4,0,27.8,12.5,27.8,27.8Z" class="g4_3" />
<path d="M259.7,162.2c0,21.8,-17.7,39.4,-39.5,39.4c-21.7,0,-39.4,-17.6,-39.4,-39.4c0,-21.8,17.7,-39.4,39.4,-39.4c21.8,0,39.5,17.6,39.5,39.4Z" class="g5_3" />
<path d="M276.2,162.2c0,30.9,-25,56,-56,56c-30.9,0,-55.9,-25.1,-55.9,-56c0,-30.9,25,-56,55.9,-56c31,0,56,25.1,56,56Z" class="g6_3" />
<path d="M301.1,162.2c0,44.6,-36.2,80.8,-80.9,80.8c-44.6,0,-80.8,-36.2,-80.8,-80.8c0,-44.6,36.2,-80.8,80.8,-80.8c44.7,0,80.9,36.2,80.9,80.8Z" class="g7_3" />
<path d="M174.4,107.7c-8.2,7.2,-14.7,16.3,-18.8,26.3c0.3,-1.2,0.6,-2.4,0.9,-3.5c0.3,-1.2,0.5,-2.4,1,-3.6c0.7,-1.9,1.7,-3.8,2.8,-5.5c1.3,-1.7,2.7,-3.4,4.1,-5c1.6,-1.5,3.2,-3,4.8,-4.5c1.7,-1.4,3.5,-2.7,5.2,-4.2Z" class="g8_3" />
<path d="M200.5,93.4c-8.1,2.4,-15.8,6.3,-22.5,11.4c0.5,-0.4,0.9,-0.8,1.3,-1.2c5.9,-5.3,13.2,-9.3,21.2,-10.2Z" class="g8_3" />
<path d="M308.9,167.6c-1.4,-2.7,-2.5,-5.4,-4.1,-8.2c-1.6,-2.7,-2.8,-5.4,-4.7,-7.9c-1.7,-2.6,-3.2,-5.1,-5.2,-7.4C294,143,293,141.9,292.1,140.8c-0.4,-0.5,-0.9,-1.1,-1.4,-1.6l-1.6,-1.4c-0.6,-1.2,-1.3,-2.3,-1.9,-3.4c-0.7,-1,-1.4,-2,-1.9,-3c0,0.1,-0.5,-0.7,-1.2,-2c-0.6,-1.4,-1.9,-3.1,-3.2,-5.1c-1.1,-2,-2.8,-3.9,-4.3,-5.9c-0.4,-0.5,-0.7,-0.9,-1.1,-1.4c-0.4,-0.5,-0.8,-0.9,-1.2,-1.3c-0.7,-0.8,-1.4,-1.6,-2.1,-2.3c1.2,0.4,2.4,0.8,3.6,1.1c0.6,0.2,1.2,0.3,1.8,0.5c0.6,0.2,1.2,0.4,1.7,0.6c2.3,0.7,4.7,1.3,7.1,1.7c-0.8,-1.5,-2.1,-3.7,-3.1,-5.6c-0.5,-1,-1,-1.8,-1.3,-2.4c-0.3,-0.7,-0.4,-1.2,-0.2,-1.4c1.1,-0.3,2.4,-0.4,3.8,-0.2c1.3,0.3,2.7,0.9,4.3,1.6c1.5,0.8,3.1,1.8,4.8,2.9c1.5,1.3,3.1,2.6,4.7,4.1c0.1,0.3,0.4,1,1,2c0.5,1.1,1,2.6,1.7,4.4c0.3,0.8,0.7,1.8,1.1,2.8c0.1,0.5,0.3,1,0.5,1.5c0.2,0.6,0.4,1.1,0.5,1.7c0.6,2.3,1.4,4.7,2.1,7.4c0.5,2.6,1,5.3,1.5,8.1c0.3,2.8,0.6,5.6,0.9,8.4c0.2,2.7,0.1,5.4,0.3,7.9c0,0.7,0,1.3,0,1.9c0,0.6,0,1.2,0,1.8c-0.1,1.2,-0.1,2.4,-0.1,3.4Z" class="g9_3" />
<path d="M296.5,206.2c-0.7,1.2,-1.5,2.4,-2.4,3.6c-0.4,0.6,-0.8,1.2,-1.3,1.8c-0.5,0.5,-1,1.1,-1.5,1.7c-2,2.3,-3.9,4.6,-6.2,6.4c-2.1,1.9,-4.1,3.8,-6.1,5.1c-2,1.3,-3.6,2.5,-4.8,3.4c0.5,-2.1,1,-4.2,1.5,-6.3c0.3,-1.1,0.6,-2.1,0.9,-3.1c0.2,-1.1,0.5,-2.2,0.8,-3.3c-1.5,0.8,-2.8,1.4,-4.2,2c-1.3,0.5,-2.6,1.1,-3.9,1.9c0.3,-0.8,0.6,-1.7,1,-2.5l2.1,-2c0.7,-0.7,1.3,-1.5,1.9,-2.2l1.9,-2.2l1,-1.1c0.3,-0.4,0.6,-0.8,0.8,-1.2l3.4,-4.8l2.8,-5.1c3.6,-6.9,6,-14.2,7.3,-21.7c0.4,0.3,0.9,1.8,1.5,4c0.3,1.1,0.7,2.4,1,3.8c0.4,1.5,0.5,3,0.8,4.6c0.2,1.6,0.5,3.3,0.7,4.9c0.1,1.7,0.2,3.3,0.3,4.8c0.1,1.6,0.3,3,0.4,4.3c0.1,1.3,0.2,2.4,0.3,3.2Z" class="g10_3" />
<path d="M307,175.1c-0.1,1,-0.2,2,-0.3,3c0,1.1,-0.1,2,-0.3,3c-0.3,1.9,-0.6,3.8,-0.9,5.6c-0.4,1.7,-1.1,3.4,-1.8,5c-0.6,1.7,-1.2,3.4,-1.9,5c-0.9,1.6,-1.7,3.2,-2.5,4.8l-1.3,2.4c-0.4,0.8,-1,1.5,-1.5,2.3c-0.3,-1.7,-0.6,-3.4,-0.9,-5.2c-0.3,-1.8,-0.5,-3.6,-0.7,-5.5c-0.2,-1.8,-0.5,-3.8,-0.7,-5.7c-0.1,-1,-0.2,-1.9,-0.3,-2.9c-0.1,-1,-0.1,-2,-0.3,-3c-0.2,1.1,-2.1,1.4,-2.5,2.4c0.1,-0.6,0.2,-1.2,0.4,-1.8c0,-0.6,0.1,-1.1,0.2,-1.7c0.1,-1,0.2,-2,0.3,-2.8c0.2,-1.6,0.2,-2.8,-0.5,-3.4c0.4,-3.5,1,-7,0.9,-10.6l0,-2.6c0,-0.5,0.1,-0.9,0.1,-1.3l-0.2,-1.3l-0.4,-5.3c-0.2,-1.7,-0.6,-3.5,-0.9,-5.2l-0.4,-2.6l-0.7,-2.5c-0.6,-1.6,-0.9,-3.4,-1.5,-5l-1.9,-4.9c2,2.5,2.7,5.5,3.3,8.4c0.5,-0.8,0.6,-1.8,0.5,-2.8c-0.1,-1.1,-0.7,-2.1,-1.2,-3.1l1.6,1.4c0.5,0.5,1,1.1,1.4,1.6c0.9,1.1,1.9,2.2,2.8,3.3c2,2.3,3.5,4.8,5.2,7.4c1.9,2.5,3.1,5.2,4.7,7.9c1.6,2.8,2.7,5.5,4.1,8.2c-0.1,1.3,-0.2,2.5,-0.3,3.7c-0.8,0.9,-1.6,1.7,-1.6,3.8Z" class="g11_3" />
<path d="M189,91.1c0.9,-0.9,1.9,-1.5,2.8,-2.2c0.9,-0.8,1.8,-1.5,2.6,-2.2c1.7,-1.5,3.3,-2.8,4.8,-4.1c1.6,-1.3,3,-2.7,4.4,-3.9c1.4,-1.2,2.7,-2.5,4,-3.7c3.1,-0.3,9.1,0.4,13.5,-0.7c2,0.1,4.5,0.3,7.2,0.5c2.8,0.4,5.6,1,8.4,1.4c1.3,0.2,2.6,0.6,3.9,0.9c1.2,0.3,2.3,0.6,3.3,0.8c1.1,0.2,2,0.3,2.7,0.5c0.7,0.1,1.3,0.2,1.7,0.1c0.7,-0.1,0,-0.2,-1.8,-0.2c-1.7,0.1,-4.4,0.4,-7.3,0.7c-0.7,0.1,-1.5,0.2,-2.2,0.3c-0.8,0.2,-1.6,0.4,-2.3,0.5c-1.6,0.4,-3.1,0.8,-4.5,1.1c-1.4,0.4,-2.8,0.9,-4,1.4c-1.2,0.4,-2.3,0.9,-3.2,1.3c-0.4,1.1,-1.6,1.9,-3.1,2.8c-1.5,1,-3.4,2,-5.4,2.9c-1.4,-0.1,-0.4,-1.5,-1.7,-1.7c0,0.1,-0.6,0.6,-1.1,1.1c-0.6,0.5,-1.1,1,-1.1,1c0,0,-2.4,0.4,-5.4,0.8c-1.4,0.4,-3,0.8,-4.6,1.2c-0.7,0.1,-1.5,0.3,-2.2,0.5c-0.7,0.3,-1.3,0.5,-1.9,0.7c-1.4,-0.6,-3.5,0,-5.1,0.8c-1.5,1,-2.6,2.1,-2.6,2.4c-1.3,0.6,-2.5,1.2,-3.8,1.8L184.9,98c1.3,-1.5,2.7,-2.9,4.1,-4.4c0.7,-0.9,0,-2.5,0,-2.5Z" class="g12_3" />
<path d="M281.8,107.9c1.1,-0.3,2.4,-0.4,3.8,-0.2c1.3,0.3,2.7,0.9,4.3,1.6c1.5,0.8,3.1,1.8,4.8,2.9c1.5,1.3,3.1,2.6,4.7,4.1c-0.8,-1.4,-2,-4,-3.3,-6.2c-1.4,-2.2,-2.7,-4.1,-2.9,-4.5c-0.2,1.4,0,3.3,-1.5,2c-0.9,-0.9,-1.7,-1.9,-2.7,-2.8c-1,-1,-2,-1.9,-3,-2.8c-1,-0.9,-1.9,-1.8,-2.8,-2.6c-0.9,-0.8,-1.7,-1.5,-2.4,-2.1C277.6,93.7,274.3,89.6,270.3,86c-1.9,-0.9,-3.9,-1.9,-5.8,-2.8c-0.9,-0.5,-1.9,-0.9,-2.9,-1.2c-1,-0.4,-1.9,-0.7,-2.9,-1.1c-0.3,-0.1,-2.9,0.3,-3.2,1c-1.2,-0.7,-2.5,-1.1,-3.7,-1.7c-1.2,-0.5,-2.4,-1.1,-3.5,-1.7c-0.1,0.1,-1.6,-0.2,-3.9,-0.1c-1.1,0.1,-2.4,0.1,-3.9,0.1c-1.4,0.1,-2.8,0,-4.4,0.3c-3,0.6,-6,1,-8.4,1.9c-2.4,0.9,-4.1,1.9,-4.7,2.9c-0.4,1,-1.6,1.9,-3.1,2.8c-1.5,1,-3.4,2,-5.4,2.9c0,0,0.8,0,2,-0.1c0.6,0,1.3,0,2.1,0c0.8,-0.1,1.7,-0.1,2.6,0c1.8,0.1,3.7,0.3,5.6,0.4c1,0,1.8,0.2,2.7,0.4c0.8,0.1,1.6,0.3,2.3,0.4c-0.1,-0.4,-2.1,-1.7,-2.7,-1.9c0.4,0,1.9,0.6,3.6,1.2c0.8,0.4,1.7,0.7,2.5,1c0.8,0.4,1.4,0.7,2,0.9c3.4,0.7,11.5,3.8,12.2,4.1c0.9,0.5,-0.4,-1.4,0,-2.5c1.7,1.7,3.4,3.2,5.2,4.7c1.7,1.5,3.4,3.1,5.2,4.5c1.1,0.6,2,1.5,3,2.2c0,0.6,0,1,-0.4,0.7c-0.7,-0.4,-1.3,-0.8,-2,-1.2c0.4,0.4,1.2,1,2.2,1.8c0.5,0.4,1,0.9,1.6,1.3c0.3,0.2,0.6,0.5,0.8,0.7l0.8,0.8c2.1,2.1,4.4,4.1,5.1,5.2c-0.4,-0.5,-0.7,-1.1,-1.1,-1.6l-1.2,-1.5c-0.8,-1.1,-1.5,-2.1,-2.2,-3.2l2.9,2.7l1.4,1.4l1.3,1.5l0.3,0.2c1.2,0.4,2.3,0.8,3.6,1.1c0.6,0.2,1.2,0.4,1.8,0.5c0.5,0.2,1.1,0.4,1.7,0.6c2.3,0.7,4.6,1.3,7,1.7c-0.8,-1.5,-2.1,-3.7,-3.1,-5.6c-0.5,-1,-1,-1.8,-1.3,-2.4c-0.3,-0.7,-0.4,-1.2,-0.2,-1.4Z" class="g13_3" />
<path d="M194.1,228.6c1.1,1,2.5,1.9,4,2.8c1.5,0.9,3.2,1.5,4.9,2.3c0.8,0.4,1.7,0.8,2.5,1.1c0.9,0.3,1.7,0.6,2.5,1c1.6,0.6,3,1.4,4.2,2.2c3.8,2.8,5,5.6,5.6,8.4c0.6,2.9,0.5,5.9,2.4,8.9C205.1,254.1,190.4,249.4,177.6,242c-12.7,-7.7,-23.5,-18.2,-31.4,-30.4c1.5,1.1,3.1,2.6,4.7,4.2c0.8,0.8,1.5,1.7,2.4,2.5c0.9,0.8,1.7,1.6,2.6,2.3c0.9,0.8,1.8,1.6,2.6,2.3c0.9,0.7,1.9,1.3,2.8,1.8c1.8,1,3.6,1.8,5.3,1.9c0.4,-0.4,-1,-2.4,-1.5,-3.6c3.1,1.8,7.1,4,10.4,5.6c3.6,1.3,6.3,2,7,0.8c0.8,-1.5,0.1,-4.1,0.6,-6.5l1.9,1.2c0.7,1,2.1,1.7,3.7,2.4c0.8,0.3,1.6,0.7,2.5,1.1c0.5,0.1,0.9,0.4,1.4,0.5c0.5,0.2,1,0.3,1.5,0.5Z" class="g14_3" />
<path d="M162.3,200.3c0.7,1.2,1.7,2.1,2.5,3.2c0.8,1,1.6,2.1,2.5,3.1l2.7,2.8l1.4,1.5c0.5,0.4,1,0.8,1.5,1.3c-0.3,0.4,-0.6,0.9,-0.8,1.4L170.4,212l-1.7,-1.8c-1,-1.1,-2.2,-2.2,-3.2,-3.4c-1.9,-2.5,-4.1,-4.9,-5.8,-7.6c0.9,0.4,1.8,0.8,2.6,1.1Z" class="g15_3" />
<path d="M165.1,223c0.5,1.2,1.9,3.2,1.5,3.6c-1.7,-0.1,-3.5,-0.9,-5.3,-1.9c-0.9,-0.5,-1.9,-1.1,-2.8,-1.8c-0.8,-0.7,-1.7,-1.5,-2.6,-2.3c-0.9,-0.7,-1.7,-1.5,-2.6,-2.3c-0.9,-0.8,-1.6,-1.7,-2.4,-2.5c-1.6,-1.7,-3.2,-3.1,-4.7,-4.2c-6.1,-9.5,-10.4,-20.1,-12.6,-31.1c0.9,1.8,1.8,3.5,2.7,5.2c-0.7,-2.9,-0.3,-4.9,0.4,-6.9c0.6,-1.9,1.4,-3.8,0.9,-6.7c2.9,8.2,6.9,17.2,12.2,24.5c0.7,0.9,1.3,1.8,2,2.7c0.7,0.9,1.5,1.7,2.2,2.5c1.5,1.5,2.8,3.1,4.5,4.2c1.6,1.2,3.1,2.3,4.6,3.3c1.6,0.8,3.2,1.4,4.7,1.9l1.7,1.7l1.9,1.6c1.2,1,2.4,2.1,3.7,3.1c2.7,1.8,5.1,3.8,8,5.3c-0.5,2.4,0.2,5,-0.6,6.5c-0.7,1.2,-3.4,0.5,-7,-0.8c-3.3,-1.6,-7.3,-3.8,-10.4,-5.6Z" class="g15_3" />
<g clip-path="url(#c0_3)">
<path d="M137.6,172.1c0.5,2.9,-0.3,4.8,-0.9,6.7c-0.7,2,-1.1,4,-0.4,6.9c-0.9,-1.7,-1.8,-3.4,-2.7,-5.2C131,167.8,131.2,154.6,134.1,142c0.3,-0.8,0.6,-1.6,0.9,-2.4c0.3,-1.2,0.7,-2.4,1,-3.5c0.4,-1.1,0.9,-2.2,1.3,-3.3c0.4,-1.1,0.8,-2.1,1.2,-3.2l0.6,-1.5c0.2,-0.6,0.5,-1.1,0.7,-1.6c1,-1.9,2,-3.9,3,-5.9c1.1,-1.9,2.4,-3.8,3.7,-5.7c-0.6,3.3,-1.4,6.3,-1.6,9.5c-0.1,1.5,-0.2,3.1,-0.4,4.6l-0.1,1.2l0,1.2l0,2.3c-6.7,9,-11.6,21.3,-12.1,35.3c0.3,-5,3.1,-3.8,3.6,-6.2c0.7,-2.2,1.9,-4.2,3.1,-6c0.5,-0.8,1.2,-1.6,1.8,-2.3c0.6,-0.7,1.3,-1.3,2,-1.8c2.6,-2,5,-2.3,6.1,-0.3c-0.1,1,-0.3,2,-0.4,3l0,2.9c0,2,-0.2,4,0.1,5.9c0.1,2,0.2,3.9,0.5,5.9l1,5.7c1.8,7.6,4.8,14.9,8.8,21.5c-0.1,1.3,-0.3,3.2,0.2,3.9l0.9,1.4c0.4,0.4,0.8,0.8,1.1,1.3l2.2,2.5c1.3,1.8,3,3.2,4.5,4.8c-1.5,-0.5,-3.1,-1.1,-4.7,-1.9c-1.5,-1,-3,-2.1,-4.6,-3.3c-1.7,-1.1,-3,-2.7,-4.5,-4.2c-0.7,-0.8,-1.5,-1.6,-2.2,-2.5c-0.7,-0.9,-1.3,-1.8,-2,-2.7c-5.3,-7.3,-9.3,-16.3,-12.2,-24.5Z" class="g16_3" />
</g>
<path d="M144.4,133.7l0,-2.3l0,-1.2l0.1,-1.2c0.2,-1.5,0.3,-3.1,0.4,-4.6c0.2,-3.2,1,-6.2,1.6,-9.5c1.2,-2,2.9,-3.7,4.5,-5.6c-0.4,-0.3,-0.8,-0.6,-1.7,-0.2l1.6,-2.1c0.5,-0.7,1,-1.4,1.6,-2c1.7,-1.4,4.2,-1.7,4.8,-5.3c1.7,-1.7,3.6,-3.4,5.4,-5c1.1,-0.7,2.3,-1.1,3.4,-1.3c1.1,-0.3,2,-0.4,2.9,-0.3l-1,-1.3c0.7,-1.2,1.7,-1.9,2.7,-2.6c1.1,-0.5,2.4,-0.9,3.4,-1.6c-0.1,-0.2,-0.4,-0.6,-0.4,-1c1.3,-0.6,2.7,-1.3,4.1,-2c1.4,-0.7,2.8,-1.3,4.3,-2c1.5,-0.6,2.9,-1.4,4.3,-2c1.5,-0.6,3,-1.1,4.3,-1.7c1.4,-0.5,2.7,-1.1,3.9,-1.5c1.3,-0.4,2.5,-0.8,3.5,-1.1c2,-0.6,3.6,-1.1,4.3,-1.3c1.7,0,3.4,0,5.2,0c-1.3,1.2,-2.6,2.5,-4,3.7c-1.4,1.2,-2.8,2.6,-4.4,3.9c-1.5,1.3,-3.1,2.6,-4.8,4.1c-0.8,0.7,-1.7,1.4,-2.6,2.2c-0.9,0.7,-1.9,1.3,-2.8,2.2c0,0,0.7,1.6,0,2.5c-1.4,1.5,-2.8,2.9,-4.1,4.4c-5.5,1.6,-11,5.3,-14.4,9.2c-0.8,0.9,-1.6,1.8,-2.3,2.6c-0.7,0.9,-1.2,1.7,-1.7,2.4c-0.9,1.3,-1.4,2.2,-1.5,2.3c-1.1,1.2,-2,2.5,-2.9,3.8c-0.7,0.9,-1.5,1.8,-2.3,2.8c-0.8,1,-1.6,2.1,-2.4,3.2c-0.8,1.1,-1.8,2.2,-2.5,3.5c-0.7,1.3,-1.4,2.6,-2.1,3.9c-0.4,0.7,-0.8,1.3,-1.1,2l-0.7,2.1c-0.5,1.5,-1,2.9,-1.4,4.4c-0.2,1.4,-0.4,2.9,-0.5,4.3c0,1.5,-0.1,2.9,0.2,4.3l-0.4,3.6c-1.1,-2,-3.5,-1.7,-6.1,0.3c-0.7,0.5,-1.4,1.1,-2,1.8c-0.6,0.7,-1.3,1.5,-1.8,2.3c-1.2,1.8,-2.4,3.8,-3.1,6c-0.2,1.2,-1.1,3.7,-1.9,5.5c-0.8,1.8,-1.5,2.9,-1.7,0.7c-0.1,-1.9,0,-4,0.1,-6.1c0.2,-2.1,0.7,-4.3,1.2,-6.4c0.2,-1.1,0.5,-2.2,0.7,-3.2c0.4,-1,0.8,-2.1,1.1,-3.1c0.8,-2,1.5,-3.9,2.3,-5.6c0.9,-1.7,1.7,-3.3,2.5,-4.7c0.8,-1.3,1.5,-2.5,2.2,-3.5c1.3,-1.8,2.1,-2.8,2,-2.7Z" class="g8_3" />
<path d="M232,242.7l-2.9,0.2c-1,0.1,-2,0,-2.9,0c-2,-0.1,-4,-0.2,-6,-0.2c4.3,-0.3,8.6,0.3,10.7,-1.5c1.9,0.1,4,-0.1,6.1,-0.6c-1.5,0.9,-3.2,1.5,-5,2.1Z" class="g17_3" />
<path d="M237.6,233.5l3,-0.8c0.3,1.1,-1.5,2.7,-3.6,2.7c0.2,1.1,2,-0.5,2.1,0c0.4,1.5,-0.8,1.8,-2.2,2c-0.5,-2.4,0.4,-5.3,1.8,-5.6l2,-0.5c-1,0.7,-2.7,1.5,-3.1,2.2Z" class="g17_3" />
<path d="M269.3,219.4c1.3,-0.8,2.6,-1.4,3.9,-1.9c1.4,-0.6,2.7,-1.2,4.2,-2c-0.3,1.1,-0.6,2.2,-0.8,3.3c-0.3,1,-0.6,2,-0.9,3.1c-0.5,2.1,-1,4.2,-1.5,6.3c-9.1,6,-18.8,10.2,-29.1,12.5c1.6,-1,3.2,-2,4.6,-3.1c-2.1,0.8,-4.1,1.6,-6,1.7c0.4,-0.3,0.6,-0.7,0.7,-1.2l0,-0.1c1.5,-0.3,2.7,-0.8,2.2,-2.2c-0.2,-0.5,-1.9,1.3,-2.3,0.2c2.3,-0.2,3.9,-2,3.5,-3.1l-3,1.1c0.4,-0.8,2,-1.7,3,-2.5c8.4,-3.4,16,-8.4,22.5,-14.6c-0.4,0.8,-0.7,1.7,-1,2.5Z" class="g18_3" />
<path d="M182.1,194.3c5.1,5.7,11.4,10.3,18.4,13.1c-1.6,-0.4,-3.3,-0.7,-4.9,-1.2c-1.4,-0.6,-2.7,-1.2,-3.9,-2c-1.2,-0.9,-2.4,-1.9,-3.5,-2.9c-1.1,-1.1,-2.1,-2.2,-3.2,-3.4c-1,-1.2,-1.9,-2.4,-2.9,-3.6Z" class="g8_3" />
<path d="M172.1,176c1.7,5.7,4.4,11.1,8,15.8l-0.8,-0.9c-3.8,-4.2,-6.6,-9.3,-7.2,-14.9Z" class="g8_3" />
<path d="M224.1,100.2c-2,0.9,-3.9,1.7,-5.8,2.8c-1.9,1.1,-3.8,2,-5.6,3.3c-1.7,1.2,-3.5,2.2,-5.1,3.6c-1.6,1.4,-3.1,2.6,-4.5,4.1c-0.7,0.4,-1.5,0.9,-2.3,1.3c-0.7,0.5,-1.4,1,-2.1,1.4c0,0,-0.5,0.3,-1.4,0.8c-1,0.5,-2.2,1.3,-3.6,2.2c-1.4,0.8,-2.7,2,-4.1,3.1c-1.4,0.9,-2.5,2.2,-3.5,3c1,-3.4,2.1,-6.6,2.8,-9.9c-1.1,0.6,-2.7,1.4,-4,2.2c-1.3,0.6,-2.3,1.3,-2.6,1c-0.3,-0.8,-0.3,-1.6,-0.2,-2.6c0.2,-1,0.6,-2,1.1,-3c0.6,-1.1,1.3,-2.2,2.1,-3.4c0.8,-1.1,1.8,-2.2,2.8,-3.3c0.2,-0.1,0.7,-0.3,1.4,-0.7c0.8,-0.3,1.8,-0.7,3.1,-1.2c2.4,-1,5.7,-2,9.3,-2.9c1.9,-0.4,3.8,-0.7,5.7,-1.1c2,-0.2,4,-0.4,5.9,-0.6c1.9,-0.1,3.8,-0.1,5.6,-0.2c0.9,-0.1,1.7,0,2.6,0c0.8,0,1.6,0.1,2.4,0.1Z" class="g9_3" />
<path d="M251,108.8c1.7,1.1,3.5,2.2,5,3.6c1.6,1.4,3.2,2.8,4.5,4.4c2.8,2.9,4.7,6,5.9,7.6c-1.4,-0.3,-2.9,-0.7,-4.4,-1c-0.7,-0.2,-1.4,-0.4,-2.2,-0.6c-0.7,-0.2,-1.5,-0.4,-2.3,-0.6c1.3,2.1,1.6,3.8,2.8,5.7c-0.6,-0.2,-1.2,-0.5,-1.8,-0.7c-3.8,-3.9,-8.1,-7.4,-13,-9.8c-4.8,-2.5,-9.9,-4.2,-15.2,-5.1c0.2,-0.2,1.3,-0.6,2.8,-1c0.8,-0.2,1.7,-0.5,2.7,-0.7c1,-0.3,2.1,-0.4,3.2,-0.6c1.1,-0.2,2.3,-0.3,3.5,-0.5c1.1,-0.1,2.2,-0.1,3.3,-0.2c1.1,-0.1,2.1,-0.2,3,-0.3c0.9,0,1.7,-0.1,2.2,-0.2Z" class="g10_3" />
<path d="M229.3,101.5c1.4,0.1,2.8,0.1,4.2,0.4c1.3,0.2,2.6,0.4,3.9,0.6c1.2,0.3,2.4,0.8,3.5,1.3l3.5,1.3c1.1,0.6,2.3,1.2,3.4,1.8l1.7,0.9c0.5,0.3,1,0.7,1.5,1c-2.2,0.4,-4.8,0.9,-7.4,1.2c-1.3,0.1,-2.7,0.3,-4,0.4c-1.4,0.2,-2.7,0.2,-4.2,0.4c0.8,0.2,1,1.5,1.7,1.8c-0.4,-0.1,-0.8,-0.2,-1.2,-0.2c-0.5,-0.1,-0.8,-0.1,-1.2,-0.2c-0.8,-0.1,-1.4,-0.1,-2,-0.2c-1.1,-0.1,-1.9,-0.2,-2.4,0.3c-4.9,-0.7,-9.9,-0.8,-14.7,-0.3c-4.9,0.8,-9.7,1.9,-14.2,3.8c1.7,-1.4,3.9,-1.9,5.9,-2.3c-0.6,-0.3,-1.3,-0.4,-2,-0.3c-0.7,0.1,-1.4,0.4,-2.2,0.8c1.4,-1.5,2.9,-2.7,4.5,-4.1c1.6,-1.4,3.4,-2.4,5.1,-3.6c1.8,-1.3,3.7,-2.2,5.6,-3.3c1.9,-1.1,3.8,-1.9,5.8,-2.8c0.8,0,1.6,0.1,2.5,0.1c0.7,0.6,1.2,1.2,2.7,1.2Z" class="g11_3" />
<path d="M170.5,184.1c-1.2,-1.4,-2.1,-2.7,-3.1,-3.8c-1.1,-1.2,-1.9,-2.3,-2.9,-3.4c-0.9,-1.1,-1.9,-2.1,-2.7,-3c-0.9,-1,-1.7,-1.9,-2.6,-2.8c-0.2,-2.2,0.3,-6.4,-0.5,-9.5c0.1,-1.4,0.2,-3.2,0.4,-5.1c0.2,-1.9,0.7,-3.9,1,-5.8c0.3,-1.9,0.9,-3.6,1.1,-5.1c0.2,-0.7,0.3,-1.3,0.4,-1.8c0.1,-0.6,0.1,-1,0.1,-1.2c-0.1,-0.6,-0.2,0,-0.2,1.2c0.1,1.2,0.3,3.1,0.5,5.1c0.1,1,0.3,2.1,0.6,3.2c0.3,1.1,0.5,2.1,0.8,3.1c0.2,1,0.6,2,0.9,2.8c0.3,0.9,0.6,1.7,0.9,2.3c0.8,0.3,1.4,1.1,2,2.1c0.7,1.1,1.4,2.4,2,3.8c-0.1,1,-1,0.3,-1.1,1.2c0.1,0,1.4,1.5,1.4,1.5c0,0,0.2,1.7,0.6,3.8c0.2,1,0.5,2.2,0.8,3.2c0.1,0.6,0.2,1.1,0.3,1.6c0.2,0.5,0.4,0.9,0.5,1.3c-0.4,1,0,2.4,0.6,3.6c0.7,1.1,1.5,1.8,1.7,1.8c0.4,0.9,0.8,1.8,1.2,2.7l0.1,0c-1.1,-0.8,-2,-1.8,-3.1,-2.8c-0.6,-0.5,-1.7,0,-1.7,0Z" class="g12_3" />
<path d="M182.3,119.1c-0.3,-0.8,-0.3,-1.6,-0.2,-2.6c0.2,-1,0.6,-2,1.1,-3c0.6,-1.1,1.3,-2.2,2.1,-3.4c0.8,-1.1,1.8,-2.2,2.8,-3.3c-1,0.6,-2.8,1.4,-4.3,2.3c-1.6,1,-2.9,1.9,-3.2,2c1,0.2,2.3,0.1,1.4,1.1c-0.6,0.6,-1.3,1.2,-2,1.9c-0.6,0.7,-1.3,1.4,-1.9,2.1c-0.6,0.7,-1.3,1.3,-1.8,1.9c-0.6,0.7,-1.1,1.2,-1.5,1.7c-2.5,2.3,-5.4,4.6,-7.9,7.4c-0.6,1.3,-1.3,2.7,-2,4c-0.6,1.3,-1,2.7,-1.6,4.1c0,0.2,0.3,2,0.7,2.2c-0.8,1.8,-1.5,3.5,-2.3,5.1c0,0,-0.2,1.1,-0.1,2.7c0.1,1.6,0,3.7,0.3,5.8c0.4,2.1,0.7,4.2,1.3,5.9c0.6,1.6,1.3,2.9,2,3.3c0.8,0.3,1.4,1.1,2,2.1c0.7,1.1,1.4,2.4,2,3.8c0,0,0,-0.5,0,-1.4c0,-0.8,-0.2,-2,-0.1,-3.2c0.1,-1.3,0.2,-2.7,0.3,-4c0.1,-1.3,0.4,-2.5,0.6,-3.5c-0.3,0.1,-1.2,1.5,-1.4,1.9c0.1,-0.3,0.5,-1.3,0.9,-2.5c0.2,-0.6,0.5,-1.2,0.7,-1.8c0.2,-0.5,0.5,-1,0.6,-1.3c0.5,-2.5,2.7,-8.1,2.9,-8.6c0.3,-0.7,-1,0.3,-1.7,0c1.1,-1.2,2.2,-2.4,3.2,-3.6c1.1,-1.2,2.2,-2.4,3.2,-3.7c0.4,-0.7,1,-1.4,1.5,-2.1c0.4,0,0.7,0,0.5,0.3c-0.2,0.5,-0.5,0.9,-0.8,1.4c0.5,-0.6,1.7,-2.3,3.2,-3.8c1.5,-1.5,2.9,-3,3.6,-3.6c-0.8,0.5,-1.5,1.1,-2.2,1.6c-0.7,0.6,-1.4,1.1,-2.2,1.6l1.9,-2l1,-1l1,-1l0.2,-0.1c1,-3.4,2.1,-6.6,2.8,-9.9c-1.1,0.6,-2.7,1.4,-4,2.2c-1.3,0.6,-2.3,1.3,-2.6,1Z" class="g13_3" />
<path d="M266.7,180.5c0.7,-0.8,1.4,-1.7,2,-2.8c0.6,-1,1.1,-2.2,1.6,-3.4c0.3,-0.6,0.5,-1.2,0.8,-1.8c0.2,-0.6,0.4,-1.1,0.6,-1.7c0.5,-1.1,1,-2.1,1.6,-3c2,-2.6,3.9,-3.5,5.9,-3.9c2,-0.4,4.1,-0.3,6.2,-1.7c-0.8,10.6,-4.1,20.9,-9.3,29.8c-5.4,8.9,-12.7,16.5,-21.3,22.1c0.8,-1.1,1.8,-2.3,3,-3.3c0.5,-0.6,1.1,-1.1,1.7,-1.7c0.5,-0.6,1.1,-1.2,1.7,-1.9c2.2,-2.3,3.9,-5.1,4.1,-7.5c-0.3,-0.2,-1.7,0.7,-2.5,1.1c1.3,-2.1,2.8,-5,3.9,-7.3c1,-2.5,1.4,-4.4,0.6,-4.9c-1.1,-0.6,-2.9,-0.1,-4.5,-0.4l0.8,-1.3c0.7,-0.5,1.2,-1.5,1.6,-2.6c0.5,-1.1,1.1,-2.4,1.5,-3.8Z" class="g14_3" />
<path d="M246.9,202.7c0.8,-0.5,1.5,-1.1,2.2,-1.7c0.8,-0.6,1.5,-1.1,2.2,-1.7l2,-1.9l1,-1l0.9,-1.1c0.3,0.3,0.7,0.4,1,0.6l-1.1,1.2l-1.2,1.2c-0.8,0.7,-1.6,1.5,-2.5,2.2c-1.7,1.4,-3.4,2.9,-5.3,4.1c0.3,-0.6,0.6,-1.3,0.8,-1.9Z" class="g15_3" />
<path d="M262.8,200.8c0.8,-0.4,2.2,-1.3,2.5,-1.1c-0.2,2.4,-1.9,5.2,-4.1,7.5c-0.6,0.7,-1.2,1.3,-1.7,1.9c-0.6,0.6,-1.2,1.1,-1.7,1.7c-1.2,1,-2.2,2.2,-3,3.3c-6.6,4.2,-14,7.2,-21.7,8.8l3.6,-2c-2.1,0.6,-3.5,0.3,-4.8,-0.2c-1.4,-0.5,-2.7,-1,-4.7,-0.7c5.7,-2,12,-4.8,17.2,-8.5c0.6,-0.5,1.2,-0.9,1.8,-1.4c0.6,-0.5,1.2,-1,1.7,-1.5c1.1,-1.1,2.2,-2,3,-3.2c0.9,-1.1,1.6,-2.1,2.3,-3.2c0.6,-1.1,1,-2.2,1.3,-3.3l1.3,-1.2l1,-1.3c0.8,-0.9,1.5,-1.7,2.2,-2.6c1.3,-1.9,2.7,-3.6,3.8,-5.6c1.6,0.3,3.4,-0.2,4.5,0.4c0.8,0.5,0.4,2.4,-0.6,4.9c-1.1,2.3,-2.6,5.2,-3.9,7.3Z" class="g15_3" />
<path d="M227.2,220c2,-0.3,3.3,0.2,4.7,0.7c1.3,0.5,2.7,0.8,4.8,0.2l-3.6,2c-8.9,1.8,-18.2,1.6,-27,-0.4c-0.6,-0.2,-1.1,-0.4,-1.7,-0.6c-0.8,-0.2,-1.6,-0.5,-2.4,-0.7c-0.8,-0.3,-1.6,-0.6,-2.3,-0.9c-0.8,-0.3,-1.5,-0.6,-2.3,-0.9c-0.7,-0.2,-1.4,-0.5,-2.1,-0.9c-1.4,-0.7,-2.8,-1.4,-4.2,-2.1c-1.3,-0.8,-2.6,-1.7,-4,-2.5c2.3,0.4,4.4,0.9,6.7,1c2.2,0.2,4.3,0.5,6.5,0.4c6.3,4.7,14.9,8.1,24.7,8.5c-3.5,-0.2,-2.7,-2.2,-4.3,-2.5c-1.6,-0.6,-3,-1.4,-4.2,-2.2c-1.2,-0.8,-2.2,-1.7,-2.9,-2.7c-1.4,-1.8,-1.6,-3.5,-0.2,-4.2c5.5,0.5,11.1,0.3,16.4,-0.9c5.3,-1.3,10.4,-3.3,15,-6.2c0.9,0.1,2.3,0.2,2.8,-0.1c1.3,-0.8,2.4,-2,3.6,-2.9c1.2,-0.9,2.2,-2.1,3.3,-3.2c-0.3,1.1,-0.7,2.2,-1.3,3.3c-0.7,1.1,-1.4,2.1,-2.3,3.2c-0.8,1.2,-1.9,2.1,-3,3.2c-0.5,0.5,-1.1,1,-1.7,1.5c-0.6,0.5,-1.2,0.9,-1.8,1.4c-5.2,3.7,-11.5,6.5,-17.2,8.5Z" class="g16_3" />
<path d="M200.3,215.3c-2.2,0.1,-4.3,-0.2,-6.5,-0.4c-2.3,-0.1,-4.4,-0.6,-6.7,-1c-1.3,-0.9,-2.6,-2.1,-3.9,-3.2c-0.2,0.2,-0.4,0.5,-0.1,1.1c-1,-0.7,-2,-1.4,-2.9,-2.2c-1,-1.2,-1.2,-2.9,-3.7,-3.3c-1.2,-1.2,-2.4,-2.5,-3.5,-3.8c-0.9,-1.6,-1.2,-3.2,-1.1,-4.4l-0.9,0.7c-0.9,-0.5,-1.4,-1.2,-1.8,-1.9c-0.4,-0.8,-0.7,-1.7,-1.1,-2.4c-0.2,0.1,-0.5,0.3,-0.8,0.3c-0.4,-0.9,-0.9,-1.9,-1.4,-2.9c-0.4,-1,-0.9,-2,-1.4,-3c-0.4,-1,-1,-2,-1.4,-3c-0.4,-1.1,-0.8,-2.1,-1.1,-3c-0.4,-1,-0.9,-1.9,-1.1,-2.8c-0.3,-0.9,-0.5,-1.7,-0.8,-2.4c-0.4,-1.4,-0.8,-2.5,-0.9,-3c0,-1.2,0,-2.4,0,-3.6c0.9,0.9,1.7,1.8,2.6,2.8c0.8,0.9,1.8,1.9,2.7,3c1,1.1,1.8,2.2,2.9,3.4c1,1.1,1.9,2.4,3.1,3.8c0,0,1.1,-0.5,1.7,0c1.1,1,2,2,3.1,2.8c1.1,3.9,3.7,7.7,6.4,10.1c0.7,0.6,1.3,1.2,1.9,1.7c0.6,0.4,1.2,0.8,1.6,1.1c1,0.6,1.6,1,1.7,1.1c0.8,0.8,1.7,1.4,2.6,2c0.6,0.5,1.3,1.1,2,1.6c0.7,0.6,1.4,1.1,2.2,1.7c0.8,0.5,1.6,1.2,2.5,1.7c0.9,0.5,1.8,1,2.7,1.5c0.9,0.6,1.9,1,2.9,1.3c1,0.4,2,0.7,3,1c1,0.1,2.1,0.2,3.1,0.3c1,0,2,0.1,2.9,-0.2l2.6,0.4c-1.4,0.7,-1.2,2.4,0.2,4.2c0.7,1,1.7,1.9,2.9,2.7c1.2,0.8,2.6,1.6,4.2,2.2c1.5,0.3,7.3,2.2,4.3,2.5c-5.4,0.4,-12.2,-1.6,-17.1,-3.8c-1.2,-0.6,-2.3,-1.2,-3.2,-1.8c-1,-0.5,-1.8,-1,-2.5,-1.5c-1.3,-0.9,-2,-1.5,-1.9,-1.4Z" class="g8_3" />
<path d="M276.6,154c0.3,2.7,0,5.5,0,8.2c-0.2,-3,0.2,-6,-1.1,-7.4c0.1,-1.3,-0.1,-2.9,-0.4,-4.3c0.7,1,1.1,2.2,1.5,3.5Z" class="g17_3" />
<path d="M270.2,150.1L269.6,148c0.8,-0.3,1.9,1,1.9,2.5c0.8,-0.2,-0.4,-1.4,0,-1.5c1,-0.3,1.3,0.5,1.4,1.6c-1.7,0.3,-3.7,-0.3,-4,-1.3l-0.3,-1.4c0.5,0.7,1,1.9,1.6,2.2Z" class="g17_3" />
<path d="M260.3,127.9c-1.2,-1.9,-1.5,-3.6,-2.8,-5.7c0.8,0.2,1.6,0.4,2.3,0.6c0.8,0.2,1.5,0.4,2.2,0.6c1.5,0.3,3,0.7,4.4,1c4.2,6.4,7.2,13.2,8.8,20.4c-0.7,-1.1,-1.4,-2.2,-2.1,-3.2c0.5,1.4,1,2.9,1.1,4.2c-0.2,-0.3,-0.5,-0.4,-0.8,-0.5l-0.1,0c-0.2,-1.1,-0.6,-1.9,-1.5,-1.5c-0.4,0.1,0.9,1.3,0.1,1.5c-0.1,-1.5,-1.4,-2.7,-2.1,-2.4l0.7,2.1c-0.5,-0.2,-1.2,-1.4,-1.8,-2.1c-2.3,-5.8,-5.8,-11.2,-10.2,-15.7c0.6,0.2,1.2,0.5,1.8,0.7Z" class="g18_3" />
<path d="M223.2,127.4c-5.3,-0.3,-10.7,0.6,-15.6,2.6c1,-0.6,2,-1.3,3.1,-1.8c3.7,-1.7,8.3,-1.3,12.5,-0.8Z" class="g8_3" />
<path d="M237.3,131.5l-0.1,0c-3.6,-2,-7.6,-3.3,-11.7,-3.8c0.3,0,0.6,0,0.9,0c3.8,0.2,7.8,1.4,10.9,3.8Z" class="g8_3" />
<path d="M249.1,194.8c2,-5.6,3.6,-11.7,3.5,-17.2c0.2,-0.6,0.3,-1.2,0.5,-1.8c0.1,-0.6,0.2,-1.2,0.4,-1.7c-0.1,0,0,-0.4,0.3,-1.2c0.2,-0.6,0.3,-1.7,0.6,-2.8c0.5,-2.2,0.7,-5,0.8,-6.8c1.1,2.2,2.2,4.3,3.5,6.3c0.2,-0.8,0.6,-2,0.9,-3c0.3,-1,0.5,-1.9,0.8,-1.9c1,0.5,1.8,1.7,2.3,3.3c0.2,0.8,0.5,1.7,0.6,2.7c0.1,0.9,0.2,2,0.3,3c-0.1,0.1,-0.2,0.5,-0.4,1.1c-0.2,0.5,-0.5,1.2,-0.9,2.1c-0.7,1.7,-1.9,3.8,-3.2,6c-2.7,4.6,-6.9,9,-10,11.9Z" class="g9_3" />
<path d="M231.4,203.9c-2.6,0.6,-5.8,0.9,-8.6,0.7c-2.8,-0.1,-5.3,-0.6,-6.7,-0.9c0.9,-0.5,1.8,-1.1,2.7,-1.6l1.4,-0.8l1.4,-0.8c-1.6,-0.4,-2.7,-1.2,-4.2,-1.5c0.4,-0.2,0.8,-0.3,1.2,-0.5c3.9,0,7.7,-0.4,11.3,-1.6c3.6,-1.2,7,-2.9,10.1,-5c0,0.2,-0.4,0.9,-0.9,1.9c-0.6,1,-1.3,2.3,-2.3,3.5c-0.5,0.7,-1,1.3,-1.5,2c-0.5,0.6,-1,1.2,-1.5,1.7c-0.5,0.6,-1,1.2,-1.4,1.7c-0.4,0.4,-0.7,0.8,-1,1.2Z" class="g10_3" />
<path d="M245.8,196.7c-0.8,0.7,-1.5,1.4,-2.2,1.9c-0.8,0.6,-1.6,1.1,-2.3,1.6c-1.5,0.9,-3.2,1.5,-4.8,2.2c-0.8,0.3,-1.7,0.5,-2.5,0.8c-0.8,0.3,-1.7,0.5,-2.6,0.7c1.9,-2.8,4.2,-5.8,6.8,-8.8c-0.5,0.3,-1.3,-0.2,-1.7,0c1,-0.7,1.8,-1.4,2.4,-1.9c0.7,-0.5,1.1,-0.9,1.1,-1.3c2.7,-2.1,5.3,-4.5,7.4,-7.2c2,-2.7,3.9,-5.7,5.1,-8.9c-0.1,1.6,-0.9,2.9,-1.7,4.1c0.4,-0.1,0.8,-0.4,1.1,-0.8c0.3,-0.4,0.5,-1,0.7,-1.5c0.1,5.5,-1.5,11.6,-3.5,17.2l-1.4,1.2c-0.6,0,-1.2,0,-1.9,0.7Z" class="g11_3" />
<path d="M234.1,126.8c2.3,0.2,4.5,0.3,6.4,0.5c1,0.1,2,0.1,2.9,0.2c0.9,0,1.8,0.1,2.7,0.1c1.2,1,3,3.3,4.9,4.4c0.6,0.8,1.4,1.7,2.3,2.7c0.9,1.1,1.6,2.3,2.4,3.4c0.8,1.1,1.4,2.3,2,3.1c0.6,0.8,1,1.5,1.3,1.7c0.3,0.2,0,-0.1,-0.6,-0.7c-0.6,-0.5,-1.6,-1.4,-2.8,-2.3c-1.1,-0.9,-2.5,-1.7,-3.7,-2.4c-1.3,-0.8,-2.6,-1.2,-3.4,-1.6c-0.6,0.2,-1.3,0.1,-2.1,-0.1c-0.9,-0.1,-1.9,-0.5,-2.9,-0.9c-0.4,-0.5,0.4,-0.6,0,-1.1c-0.1,0,-1.5,-0.1,-1.5,-0.1c0,0,-0.9,-0.7,-2.1,-1.5c-0.6,-0.4,-1.3,-0.8,-2,-1.2c-0.3,-0.2,-0.7,-0.4,-1,-0.6c-0.3,-0.2,-0.6,-0.3,-0.9,-0.4c-0.2,-0.8,-1.2,-1.2,-2,-1.5c-0.9,-0.2,-1.7,-0.2,-1.7,-0.1c-0.7,-0.2,-1.3,-0.5,-2,-0.7c0.9,-0.1,1.9,-0.1,2.9,-0.1c0.6,-0.1,0.9,-0.8,0.9,-0.8Z" class="g12_3" />
<path d="M260.4,164.7c1,0.5,1.8,1.7,2.3,3.3c0.2,0.8,0.5,1.7,0.6,2.7c0.1,0.9,0.2,2,0.3,3c0.2,-0.7,0.7,-2.1,1,-3.3c0.3,-1.2,0.5,-2.3,0.5,-2.5c-0.5,0.4,-1.1,1.1,-1.2,0.2c0,-0.7,0.1,-1.3,0.1,-2c-0.1,-0.7,-0.1,-1.3,-0.1,-2c0,-0.6,0,-1.3,-0.1,-1.9c0,-0.5,0,-1.1,-0.1,-1.5c0.1,-2.4,0.4,-4.9,0.3,-7.5c-0.4,-1,-0.7,-2,-1,-3c-0.4,-1,-0.9,-1.9,-1.3,-2.8c0,-0.2,-1.1,-0.9,-1.4,-0.8c-0.5,-1.3,-1,-2.5,-1.3,-3.7c-0.1,0,-0.5,-0.6,-1.4,-1.4c-0.8,-0.7,-1.8,-1.8,-3,-2.7c-1.2,-0.8,-2.4,-1.7,-3.5,-2.2c-1.2,-0.6,-2.1,-0.8,-2.6,-0.7c-0.6,0.2,-1.3,0.1,-2.1,-0.1c-0.9,-0.1,-1.9,-0.5,-2.9,-0.9c0,0.1,0.3,0.3,0.7,0.7c0.5,0.4,1.1,0.9,1.7,1.6c0.5,0.7,1.2,1.4,1.8,2.1c0.6,0.7,1,1.5,1.4,2c0.1,-0.2,-0.1,-1.3,-0.2,-1.6c0.2,0.4,1.4,2.9,1.7,3.9c0.9,1.5,2.6,5.3,2.8,5.7c0.1,0.5,0.3,-0.7,0.8,-0.9c0.1,1.2,0.1,2.3,0.2,3.4c0.1,1.1,0.1,2.3,0.3,3.4c0.1,0.6,0.1,1.2,0.2,1.8c-0.2,0.2,-0.3,0.4,-0.3,0.1c-0.1,-0.4,-0.2,-0.7,-0.3,-1.1c0,0.6,0.2,2,0.3,3.5c0,1.4,0.1,2.9,-0.1,3.5c0.3,-1.2,0.4,-2.5,0.7,-3.7l0,1.9l0,1l0,1l0,0.1c1.2,2.2,2.2,4.3,3.5,6.3c0.2,-0.8,0.6,-2,0.9,-3c0.3,-1,0.5,-1.9,0.8,-1.9Z" class="g13_3" />
<path d="M188.2,176.1c0,3.1,2.5,6.8,3,9.6c0.3,2.3,-0.2,3.7,-1,4.8c-0.8,1.2,-1.8,2.2,-2.2,4c-4.8,-5.7,-8.3,-12.4,-10.2,-19.4C176.1,168,176,160.6,177.5,153.6c0.3,1.9,0,4.3,0.2,6.6c0,2.2,0.6,4.4,1.6,5.7c0.3,0,0.5,-1.1,0.8,-1.7c0.4,1.7,1.1,3.8,1.6,5.5c0.8,1.7,1.5,2.9,2.2,2.7c0.8,-0.2,1.5,-1.4,2.4,-2l0.3,1c-0.1,0.6,0.1,1.3,0.4,2.1c0.4,0.8,0.7,1.7,1.2,2.6Z" class="g14_3" />
<path d="M187,155.3c-0.2,1.3,-0.4,2.6,-0.5,3.9l0,2c-0.1,0.6,0,1.3,0,1.9c-0.2,0.1,-0.5,0.1,-0.7,0.2l-0.1,-1.1l0.1,-1.2c0,-0.8,0,-1.6,0,-2.3c0.2,-1.6,0.3,-3.1,0.7,-4.7c0.1,0.5,0.3,0.9,0.5,1.3Z" class="g15_3" />
<path d="M180.1,164.2c-0.3,0.6,-0.5,1.7,-0.8,1.7c-1,-1.3,-1.6,-3.5,-1.6,-5.7c-0.2,-2.3,0.1,-4.7,-0.2,-6.6c1.2,-5.3,3.3,-10.5,6.4,-15.1l-0.9,2.8c0.8,-1.3,1.6,-1.8,2.5,-2.3c0.9,-0.4,1.8,-0.9,2.7,-2c-1.9,3.9,-3.6,8.4,-4.3,12.7c-0.7,4.4,-0.4,8.6,1.2,11.3l0,1.2l0.1,1.2c0.1,0.8,0.1,1.6,0.2,2.3c0.3,1.6,0.5,3.2,0.9,4.7c-0.9,0.6,-1.6,1.8,-2.4,2c-0.7,0.2,-1.4,-1,-2.2,-2.7c-0.5,-1.7,-1.2,-3.8,-1.6,-5.5Z" class="g15_3" />
<path d="M188.2,137c-0.9,1.1,-1.8,1.6,-2.7,2c-0.9,0.5,-1.7,1,-2.5,2.3l0.9,-2.8c3.5,-5.3,8.1,-9.8,13.5,-13.1c0.4,-0.2,0.8,-0.4,1.1,-0.6c4.3,-2.2,8.1,-3.8,12.6,-4.5c-1.4,0.9,-2.7,1.6,-3.8,2.7c-1.2,1,-2.4,1.9,-3.5,3.1c-5.4,0.7,-11.3,3.3,-16.4,8c1.8,-1.6,2.4,-0.3,3.4,-0.9c1,-0.5,2.1,-0.8,3.1,-1c1.1,-0.2,2,-0.3,2.8,-0.2c1.6,0.3,2.5,1,2.2,2.1c-3,2.4,-5.6,5.3,-7.7,8.5c-2,3.3,-3.5,6.8,-4.4,10.5c-0.4,0.4,-1.2,1,-1.3,1.4c-0.3,2.2,-0.5,4.4,-0.4,6.5c-1.6,-2.7,-1.8,-6.9,-1.2,-11.3c0.7,-4.3,2.4,-8.8,4.3,-12.7Z" class="g16_3" />
<path d="M203.8,126.1c1.1,-1.2,2.3,-2.1,3.5,-3.1c1.1,-1.1,2.4,-1.8,3.8,-2.7c1.1,-0.3,2.3,-0.3,3.5,-0.4c-0.1,-0.2,-0.1,-0.5,-0.5,-0.7c0.8,-0.1,1.7,-0.3,2.5,-0.3c1.1,0.1,2,0.9,3.5,-0.2c1.2,0,2.4,0.1,3.6,0.1c1.2,0.4,2.2,1.1,2.7,1.7l0.1,-0.8c0.7,-0.2,1.3,-0.1,1.9,0.1c0.6,0.2,1.1,0.4,1.7,0.6c0,-0.2,0.1,-0.4,0.2,-0.5c0.7,0.2,1.4,0.5,2.1,0.7c0.7,0.3,1.5,0.5,2.2,0.8c0.7,0.3,1.5,0.5,2.2,0.8c0.7,0.3,1.4,0.6,2.1,0.9c1.3,0.5,2.5,1.2,3.4,1.7c1,0.5,1.7,0.8,2,1c0.6,0.6,1.2,1.2,1.8,1.8c-0.9,0,-1.8,-0.1,-2.7,-0.1c-0.9,-0.1,-1.9,-0.1,-2.9,-0.2c-1.9,-0.2,-4.1,-0.3,-6.4,-0.5c0,0,-0.3,0.7,-0.9,0.8c-1,0,-2,0,-2.9,0.1c-2.5,-1.3,-5.7,-2,-8.2,-1.8c-0.6,0.1,-1.2,0.1,-1.8,0.1c-0.5,0.1,-0.9,0.2,-1.3,0.3c-0.8,0.1,-1.3,0.2,-1.4,0.2c-0.8,0,-1.5,0.2,-2.3,0.3c-0.5,0.1,-1.1,0.2,-1.8,0.2c-0.6,0.1,-1.2,0.2,-1.9,0.3c-0.7,0.1,-1.4,0.2,-2.1,0.4c-0.7,0.2,-1.4,0.4,-2.1,0.6c-0.7,0.1,-1.4,0.4,-2,0.8c-0.7,0.3,-1.4,0.6,-2,1c-1.2,0.9,-2.3,1.7,-3.1,2.9l-1.4,1.1c0.3,-1.1,-0.6,-1.8,-2.2,-2.1c-0.8,-0.1,-1.7,0,-2.8,0.2c-1,0.2,-2.1,0.5,-3.1,1c-0.9,0.6,-4.7,2.5,-3.4,0.9c2.5,-2.9,6.9,-5.3,10.3,-6.6c1.9,-0.5,3.4,-1.1,4.5,-1.2c1.1,-0.2,1.6,-0.2,1.6,-0.2Z" class="g8_3" />
<path d="M196.4,194.2c-1.5,-1.2,-2.7,-2.7,-4,-4.1c1.5,1.4,2.8,3.1,4.2,3.1c0.6,0.7,1.4,1.4,2.3,2c-0.8,-0.2,-1.6,-0.6,-2.5,-1Z" class="g17_3" />
<path d="M201.5,192.9l1.4,0.8c-0.3,0.5,-1.5,0.4,-2.2,-0.3c-0.3,0.4,0.9,0.5,0.7,0.7c-0.3,0.6,-0.9,0.4,-1.5,-0.1c0.7,-1,2,-1.7,2.6,-1.3l0.9,0.5c-0.6,-0.1,-1.4,-0.4,-1.9,-0.3Z" class="g17_3" />
<path d="M217.4,199c1.5,0.3,2.6,1.1,4.2,1.5l-1.4,0.8l-1.4,0.8c-0.9,0.5,-1.8,1.1,-2.7,1.6c-5.2,-1,-10.1,-2.9,-14.4,-5.7c0.9,0.2,1.8,0.4,2.6,0.5c-1,-0.4,-1.9,-0.8,-2.6,-1.5c0.2,0,0.4,0,0.6,-0.1l0,-0.1c0.7,0.4,1.3,0.7,1.6,0c0.1,-0.2,-1.1,-0.2,-0.9,-0.7c0.9,0.7,2.1,0.7,2.3,0.2l-1.4,-0.7c0.4,-0.1,1.3,0.1,1.9,0.1c4.1,1.8,8.5,2.7,12.8,2.8c-0.4,0.2,-0.8,0.3,-1.2,0.5Z" class="g18_3" />
<path d="M218.2,186.6c3.7,0.2,7.5,-0.5,10.9,-1.9c-0.7,0.4,-1.4,0.9,-2.2,1.3c-2.6,1.2,-5.8,0.9,-8.7,0.6Z" class="g8_3" />
<path d="M208.3,183.7l0.1,0c2.5,1.4,5.3,2.3,8.2,2.7c-0.2,0,-0.4,0,-0.6,-0.1c-2.7,-0.1,-5.5,-0.9,-7.7,-2.6Z" class="g8_3" />
<path d="M200.1,139.4c-1.4,3.9,-2.6,8.2,-2.5,12c-0.3,0.9,-0.4,1.8,-0.6,2.5c0,0,-0.1,0.3,-0.2,0.8c-0.2,0.5,-0.3,1.2,-0.5,2c-0.3,1.5,-0.5,3.4,-0.5,4.7c-0.8,-1.5,-1.5,-3,-2.5,-4.4c-0.1,0.6,-0.4,1.4,-0.6,2.2c-0.2,0.7,-0.3,1.2,-0.5,1.2c-0.8,-0.3,-1.3,-1.1,-1.7,-2.3c-0.1,-0.5,-0.3,-1.1,-0.4,-1.8c-0.1,-0.7,-0.1,-1.4,-0.2,-2.1c0.1,-0.2,0.4,-1.1,0.9,-2.2c0.5,-1.2,1.3,-2.7,2.2,-4.3c1.9,-3.2,4.9,-6.3,7.1,-8.3Z" class="g9_3" />
<path d="M212.4,133c1.9,-0.4,4.1,-0.6,6.1,-0.5c1.9,0.1,3.7,0.5,4.7,0.6c-0.7,0.4,-1.3,0.8,-1.9,1.2c-0.7,0.3,-1.3,0.7,-2,1.1c1.2,0.3,1.9,0.8,2.9,1l-0.8,0.4c-5.4,-0.2,-10.7,1.6,-15,4.6c0,-0.1,0.3,-0.6,0.7,-1.3c0.3,-0.7,0.9,-1.6,1.6,-2.5c0.3,-0.4,0.6,-0.9,1,-1.3c0.4,-0.5,0.7,-0.9,1.1,-1.3c0.7,-0.8,1.3,-1.5,1.6,-2Z" class="g10_3" />
<path d="M202.3,138.1c1.1,-1,2.2,-1.8,3.2,-2.5c1.1,-0.6,2.2,-1,3.4,-1.5c1.1,-0.4,2.3,-0.9,3.5,-1.1c-1.3,2,-2.9,4,-4.7,6.1c0.3,-0.2,0.9,0.2,1.2,0.1c-1.4,1,-2.4,1.6,-2.5,2.2c-1.9,1.5,-3.7,3.2,-5.2,5c-1.4,2,-2.7,4,-3.5,6.3c0.1,-1.1,0.6,-2,1.2,-2.9c-0.7,0.2,-1.1,0.8,-1.3,1.6c-0.1,-3.8,1.1,-8.1,2.5,-12l0.9,-0.8c0.4,-0.1,0.8,-0.1,1.3,-0.5Z" class="g11_3" />
<path d="M210.6,187c-1.7,-0.2,-3.2,-0.3,-4.6,-0.4c-0.6,-0.1,-1.3,-0.1,-2,-0.1c-0.6,0,-1.2,-0.1,-1.8,-0.1c-0.9,-0.7,-2.2,-2.3,-3.5,-3.1c-0.4,-0.5,-1,-1.2,-1.6,-1.9c-0.6,-0.7,-1.1,-1.6,-1.7,-2.3c-1,-1.6,-1.9,-3.1,-2.3,-3.4c-0.2,-0.2,0,0.1,0.4,0.5c0.5,0.4,1.2,1,2,1.6c1.6,1.2,3.7,2.4,5,2.8c0.4,-0.1,0.9,-0.1,1.4,0.1c0.7,0.1,1.4,0.3,2.1,0.6c0.3,0.3,-0.3,0.4,0,0.8c0,0,1,0,1,0c0,0,0.7,0.5,1.5,1.1c0.9,0.5,1.9,1.3,2.7,1.6c0.2,0.5,0.8,0.8,1.4,1c0.6,0.2,1.2,0.1,1.2,0.1c0.5,0.1,0.9,0.3,1.4,0.4l0,0.1c-0.6,0,-1.3,0,-2,0c-0.4,0.1,-0.6,0.6,-0.6,0.6Z" class="g12_3" />
<path d="M192.2,160.4c-0.8,-0.3,-1.3,-1.1,-1.7,-2.3c-0.1,-0.5,-0.3,-1.1,-0.4,-1.8c-0.1,-0.7,-0.1,-1.4,-0.2,-2.1c-0.1,0.5,-0.5,1.4,-0.7,2.3c-0.2,0.8,-0.3,1.6,-0.4,1.7c0.4,-0.3,0.8,-0.7,0.9,-0.1c-0.1,0.9,0,1.9,0,2.8c0,0.4,0,0.9,0,1.3c0.1,0.4,0.1,0.8,0.1,1.1c-0.1,1.6,-0.3,3.4,-0.2,5.2c0.5,1.5,1,2.8,1.6,4.1c0,0.1,0.8,0.6,1,0.5c0.3,0.9,0.7,1.8,0.9,2.6c0.1,0,0.4,0.4,1,1c0.5,0.5,1.2,1.2,2.1,1.9c0.8,0.6,1.7,1.2,2.5,1.6c0.8,0.3,1.4,0.5,1.8,0.4c0.4,-0.1,0.9,-0.1,1.4,0.1c0.7,0.1,1.4,0.3,2.1,0.6c-0.1,0,-0.2,-0.2,-0.5,-0.5c-0.3,-0.3,-0.8,-0.6,-1.2,-1.1c-0.4,-0.5,-0.8,-1,-1.3,-1.5c-0.4,-0.5,-0.7,-1,-1,-1.4c0,0.2,0.1,0.9,0.2,1.1c-0.1,-0.2,-1,-1.9,-1.2,-2.7c-0.6,-1,-1.9,-3.7,-2,-4c-0.1,-0.3,-0.2,0.5,-0.6,0.7c0,-0.9,0,-1.6,-0.1,-2.4c0,-0.8,-0.1,-1.6,-0.2,-2.4C196,166.7,196,166.3,196,165.9c0.1,-0.2,0.2,-0.3,0.2,-0.1c0.1,0.2,0.2,0.5,0.2,0.7c0,-0.3,-0.2,-1.3,-0.2,-2.4c0,-1,0,-2,0,-2.5c-0.1,0.9,-0.2,1.8,-0.4,2.7c0,-0.9,-0.1,-1.9,0,-2.8l0,-0.1c-0.8,-1.5,-1.5,-3,-2.5,-4.4c-0.1,0.6,-0.4,1.4,-0.6,2.2c-0.2,0.7,-0.3,1.2,-0.5,1.2Z" class="g13_3" />
<path d="M242.7,152.4c0,-2.1,-1.8,-4.7,-2.1,-6.6c-0.3,-1.6,0.1,-2.6,0.7,-3.4c0.5,-0.9,1.3,-1.6,1.5,-2.8c3.4,4,5.8,8.7,7.1,13.6c1.3,4.9,1.3,10.1,0.3,15c-0.3,-1.3,0,-2.9,-0.2,-4.6c0,-1.6,-0.4,-3.1,-1.1,-4c-0.2,0,-0.4,0.8,-0.5,1.2c-0.3,-1.2,-0.8,-2.7,-1.2,-3.9c-0.5,-1.1,-1,-2,-1.5,-1.8c-0.6,0.1,-1,0.9,-1.7,1.4l-0.2,-0.7c0.1,-0.5,-0.1,-1,-0.3,-1.5c-0.2,-0.6,-0.4,-1.2,-0.8,-1.9Z" class="g14_3" />
<path d="M243.5,167c0.2,-0.9,0.3,-1.8,0.4,-2.7c-0.1,-0.9,0.1,-1.8,0,-2.7c0.1,-0.1,0.3,-0.1,0.5,-0.2c0,0.6,0,1.1,0,1.6c0,0.6,0,1.1,-0.1,1.7c-0.1,1.1,-0.1,2.2,-0.4,3.2c-0.1,-0.3,-0.2,-0.6,-0.4,-0.9Z" class="g15_3" />
<path d="M248.4,160.8c0.1,-0.4,0.3,-1.2,0.5,-1.2c0.7,0.9,1.1,2.4,1.1,4c0.2,1.6,-0.1,3.3,0.2,4.6c-0.8,3.8,-2.4,7.4,-4.5,10.6c0.2,-0.7,0.4,-1.3,0.6,-2c-0.5,0.9,-1.1,1.3,-1.7,1.6c-0.7,0.4,-1.3,0.6,-1.9,1.4c1.3,-2.6,2.5,-5.8,3,-8.9c0.4,-3,0.3,-5.9,-0.9,-7.9c0.1,-0.5,0,-1.1,0,-1.6c-0.1,-0.6,-0.1,-1.1,-0.2,-1.7c-0.2,-1.1,-0.3,-2.2,-0.6,-3.2c0.7,-0.5,1.1,-1.3,1.7,-1.4c0.5,-0.2,1,0.7,1.5,1.8c0.4,1.2,0.9,2.7,1.2,3.9Z" class="g15_3" />
<path d="M242.7,179.8c0.6,-0.8,1.2,-1,1.9,-1.4c0.6,-0.3,1.2,-0.7,1.7,-1.6c-0.2,0.7,-0.4,1.3,-0.6,2c-2.5,3.7,-5.7,6.8,-9.5,9.2c-0.2,0.1,-0.5,0.3,-0.8,0.4c-3,1.5,-5.6,2.7,-8.7,3.2c1.8,-1.2,3.5,-2.6,5,-4.1c3.8,-0.5,8,-2.3,11.5,-5.6c-1.2,1.1,-1.7,0.2,-2.3,0.6c-1.5,0.7,-3,1,-4.2,0.8c-1.1,-0.2,-1.7,-0.7,-1.5,-1.4c2.1,-1.7,3.9,-3.7,5.4,-6c1.4,-2.3,2.4,-4.8,3,-7.3c0.4,-0.3,0.9,-0.7,0.9,-1c0.3,-1.5,0.4,-3.1,0.3,-4.6c1.2,2,1.3,4.9,0.9,7.9c-0.5,3.1,-1.7,6.3,-3,8.9Z" class="g16_3" />
<path d="M231.7,187.5c-1.5,1.5,-3.2,2.9,-5,4.1c-0.8,0.2,-1.6,0.2,-2.5,0.2c0,0.2,0.1,0.4,0.4,0.5c-0.6,0.1,-1.2,0.2,-1.8,0.2c-0.8,-0.1,-1.4,-0.6,-2.4,0.1c-0.9,0,-1.7,0,-2.6,0c-0.8,-0.3,-1.5,-0.8,-1.9,-1.2l-0.1,0.6c-0.9,0.2,-1.6,-0.3,-2.4,-0.5c-0.1,0.1,-0.1,0.2,-0.2,0.3c-0.5,-0.1,-1,-0.3,-1.5,-0.5c-0.5,-0.2,-1,-0.3,-1.5,-0.5c-1.1,-0.4,-2.1,-0.8,-3,-1.2c-0.9,-0.4,-1.8,-0.8,-2.4,-1.2c-0.7,-0.3,-1.2,-0.6,-1.4,-0.7c-0.4,-0.4,-0.8,-0.9,-1.2,-1.3c0.6,0,1.2,0.1,1.8,0.1c0.7,0,1.4,0,2,0.1c1.4,0.1,2.9,0.2,4.6,0.4c0,0,0.2,-0.5,0.6,-0.6c0.7,0,1.4,0,2,0c1.8,0.9,4,1.3,5.8,1.2c0.4,0,0.8,0,1.2,-0.1c0.3,0,0.7,-0.1,0.9,-0.1c0.6,-0.1,0.9,-0.2,1,-0.2c0.5,0,1.1,-0.2,1.6,-0.2c0.4,-0.1,0.8,-0.1,1.2,-0.1c0.5,-0.1,0.9,-0.2,1.4,-0.3c0.9,-0.1,1.9,-0.3,2.9,-0.6c1,-0.3,1.9,-0.8,2.8,-1.3c0.9,-0.6,1.6,-1.2,2.2,-2l1,-0.8c-0.2,0.7,0.4,1.2,1.5,1.4c1.2,0.2,2.7,-0.1,4.2,-0.8c0.6,-0.4,3.3,-1.7,2.3,-0.6c-1.7,2,-4.8,3.7,-7.2,4.6c-2.5,0.9,-4.4,1,-4.3,1Z" class="g8_3" />
<path d="M236.9,139.8c1.1,0.9,1.9,1.9,2.9,2.9c-1.1,-1,-2,-2.2,-3,-2.2c-0.4,-0.5,-1,-1,-1.6,-1.4c0.6,0.2,1.1,0.4,1.7,0.7Z" class="g17_3" />
<path d="M233.3,140.7l-0.9,-0.5c0.2,-0.4,1,-0.3,1.6,0.2c0.2,-0.3,-0.7,-0.4,-0.6,-0.5c0.3,-0.5,0.7,-0.3,1.1,0c-0.5,0.7,-1.4,1.2,-1.9,1l-0.5,-0.4c0.4,0.1,1,0.3,1.2,0.2Z" class="g17_3" />
<path d="M222.2,136.4c-1,-0.2,-1.7,-0.7,-2.9,-1c0.7,-0.4,1.3,-0.8,2,-1.1c0.6,-0.4,1.2,-0.8,1.9,-1.2c3.6,0.8,7,2.1,10.1,4.1c-0.7,-0.2,-1.3,-0.4,-1.9,-0.4c0.7,0.3,1.4,0.6,1.9,1c-0.2,0,-0.4,0.1,-0.5,0.1l0,0.1c-0.5,-0.3,-0.9,-0.5,-1.1,0c-0.1,0.1,0.8,0.1,0.6,0.5c-0.6,-0.5,-1.4,-0.5,-1.6,-0.1l1,0.4c-0.3,0.1,-0.9,-0.1,-1.3,-0.1c-2.9,-1.2,-6,-1.8,-9,-1.9Z" class="g18_3" />
<path d="M285.4,190.9c0,0,-0.7,-0.9,-0.6,-1.5c0.1,-0.6,0.9,-0.8,3.6,0.4c0,0,1.2,0.2,2.4,0.5c1.2,0.2,2.4,0.4,2.4,0.4c0,0,1.1,-0.3,2.1,-0.5l2.2,-0.7l3,2c0,0,-0.1,0.5,-0.7,2.3c-0.4,0.9,-0.7,2.3,-1.4,4c-0.8,1.7,-1.8,3.9,-3.1,6.6c-3,5.2,-7.3,13,-16.4,21.5c-2.4,2,-4.8,4.4,-7.7,6.4c-1.5,1,-3,2.2,-4.6,3.2c-1.7,0.9,-3.4,1.9,-5.1,3c-7.3,3.8,-16,7.3,-26.4,9.2c0,0,-2.1,0.3,-6,1c-1.9,0.2,-4.3,0.3,-7.1,0.5c-0.7,0.1,-1.4,0.1,-2.2,0.1c-0.7,0,-1.5,0,-2.3,-0.1c-1.6,0,-3.3,-0.1,-5.1,-0.2c-7.1,-0.7,-15.7,-2.1,-24.7,-5.9c-9,-3.7,-18.5,-9.4,-26.9,-17.6c0,0,-0.9,-0.9,-2.7,-2.7c-0.9,-0.8,-1.8,-2.1,-3,-3.4c-0.6,-0.7,-1.2,-1.5,-1.8,-2.3c-0.7,-0.8,-1.4,-1.6,-2,-2.6C145.7,207.1,139.1,195.2,136,179.4c-1.5,-7.8,-2.3,-16.6,-1.2,-25.8c1,-9.1,3.4,-18.6,7.6,-27.8c4.2,-9.1,10.2,-17.9,17.8,-25.4c7.5,-7.5,16.5,-13.7,26.5,-18.1c9.9,-4.4,20.7,-6.9,31.5,-7.4c10.7,-0.4,21.5,1,31.3,4.4c19.7,6.7,35.7,20,44.8,34.6c0.6,0.9,1.2,1.8,1.8,2.7c0.5,0.9,1,1.8,1.5,2.7c1,1.9,2,3.7,2.8,5.5c1.6,3.7,3.2,7.2,4.1,10.7c0.5,1.8,1.1,3.5,1.5,5.2c0.3,1.7,0.7,3.3,1,4.9c0.1,0.8,0.3,1.6,0.5,2.4c0,0.8,0.1,1.5,0.2,2.3c0.1,1.5,0.3,3,0.4,4.4c0.3,5.7,0.2,10.5,-0.3,14.2c-0.2,1.9,-0.3,3.5,-0.6,4.8c-0.3,1.3,-0.6,2.3,-0.8,3.1c0,0,0.2,-0.8,0.4,-2.3c0.4,-1.4,0.5,-3.7,0.8,-6.5c0.6,-5.5,0.6,-13.7,-1.3,-23.3c-1.8,-9.5,-5.7,-20.4,-12.5,-30.7C287,103.7,277.5,94,265.9,87.2C254.3,80.4,241.1,76.3,228.2,75.4C215.4,74.3,203.1,76.4,193,80c-10.2,3.5,-18.1,8.6,-23.7,12.7c-2.7,2.3,-5,4.1,-6.6,5.7c-1.6,1.6,-2.7,2.8,-3.2,3.4c0,0,0.5,-0.5,1.6,-1.6c0.5,-0.5,1.1,-1.1,1.9,-1.9c0.8,-0.7,1.8,-1.4,2.8,-2.3c1.1,-0.9,2.3,-1.9,3.5,-2.9c1.4,-1,2.9,-1.9,4.5,-3c1.6,-1.1,3.3,-2.2,5.2,-3.2c1.9,-1,3.9,-2.1,6,-3.1c8.6,-4,19.4,-7.1,31.3,-7.8c11.8,-0.8,24.7,1.2,36.5,6c11.9,4.7,22.7,12.2,31,21.1c8.3,9,14.1,19.2,17.4,28.7c3.4,9.6,4.5,18.4,4.8,25c-0.1,3.3,-0.1,6.1,-0.3,8.3c-0.3,2.2,-0.5,3.8,-0.7,4.7c0,0,0.1,-0.7,0.2,-2.1c0.1,-1.3,0.4,-3.3,0.3,-5.8c0,-2.6,0,-5.7,-0.5,-9.2c0,-0.9,-0.1,-1.8,-0.2,-2.8c-0.1,-0.4,-0.1,-0.9,-0.2,-1.4c-0.1,-0.5,-0.2,-0.9,-0.3,-1.4c-0.4,-2,-0.8,-4.1,-1.3,-6.2c-2.2,-8.6,-6.1,-18.3,-12.6,-27.5C284,104.3,275.2,95.6,264.6,89.5C254.1,83.3,242.1,79.5,230.4,78.4c-11.8,-1.2,-23.2,0.3,-32.6,3.3c-4.8,1.4,-9.1,3.3,-12.9,5.2c-1.9,1,-3.6,2,-5.3,3c-0.4,0.2,-0.8,0.4,-1.2,0.7c-0.4,0.2,-0.7,0.5,-1.1,0.8c-0.7,0.5,-1.5,1,-2.1,1.5c-1.4,1,-2.7,1.8,-3.8,2.7c-1,1,-2,1.8,-2.8,2.6c-1.7,1.6,-2.9,2.7,-3.5,3.6c0,0,0.1,-0.1,0.4,-0.3c0.2,-0.3,0.5,-0.6,1,-1c1,-0.8,2.4,-1.9,4.2,-3.4c0.5,-0.4,1,-0.8,1.5,-1.2c0.5,-0.4,1.1,-0.7,1.7,-1.1c1.2,-0.8,2.5,-1.6,3.8,-2.5c1.4,-1,3,-1.7,4.6,-2.6c0.8,-0.4,1.6,-0.9,2.5,-1.3c0.4,-0.3,0.9,-0.5,1.3,-0.7c0.5,-0.2,0.9,-0.4,1.4,-0.6c1.9,-0.8,3.8,-1.6,5.9,-2.4c2,-0.6,4.2,-1.3,6.5,-2c4.5,-1.1,9.3,-2.1,14.5,-2.4c10.2,-0.9,21.3,0.3,31.8,3.8c10.5,3.4,20.4,9.1,28.4,16.3c8,7,14.1,15.4,18.2,23.6c0.5,1,1,2,1.5,2.9c0.4,1.1,0.8,2.1,1.2,3.1c0.4,1,0.7,1.9,1.1,2.9c0.2,0.5,0.4,0.9,0.5,1.4c0.2,0.5,0.3,1,0.4,1.4c0.6,1.9,1.1,3.7,1.6,5.4c0.3,1.8,0.6,3.5,0.8,5c0.7,3.1,0.7,5.9,0.8,8.1c0.1,1.1,0.2,2.1,0.1,3c0,0.9,-0.1,1.6,-0.2,2.3c0,0,0.1,-0.5,0.1,-1.4c0,-0.4,0,-0.9,0,-1.5c-0.1,-0.6,-0.2,-1.3,-0.2,-2.1c-0.2,-1.5,-0.3,-3.3,-0.5,-5.2c-0.4,-1.9,-0.8,-4,-1.2,-6.2c-0.1,-0.5,-0.2,-1,-0.3,-1.6L298,139.9c-0.3,-1,-0.6,-2.1,-1,-3.2c-0.5,-2.1,-1.4,-4.1,-2.2,-6c-0.4,-1,-0.8,-1.9,-1.1,-2.7c-0.4,-0.9,-0.9,-1.6,-1.3,-2.4c-0.7,-1.4,-1.4,-2.6,-2,-3.5c0,0,0.4,0.8,1,2c0.3,0.6,0.7,1.4,1,2.1c0.4,0.8,0.8,1.6,1.1,2.4c0.6,1.7,1.3,3.4,1.7,4.7c0.2,0.6,0.5,1.1,0.6,1.5c0.1,0.4,0.1,0.6,0.1,0.6c0,0,-0.1,-0.4,-0.3,-0.9c-0.2,-0.6,-0.6,-1.4,-1,-2.4c-0.4,-1,-0.9,-2.2,-1.5,-3.4c-0.4,-1.3,-1.3,-2.5,-1.9,-3.8c-0.7,-1.3,-1.4,-2.5,-2,-3.7c-0.8,-1.1,-1.5,-2.2,-2.1,-3.1c-1.2,-1.8,-2,-3,-2,-3c0,0,-0.1,-0.2,-0.4,-0.4c-0.2,-0.3,-0.5,-0.7,-0.9,-1.2c-0.7,-1,-1.8,-2.4,-2.8,-3.7c-0.5,-0.7,-1,-1.3,-1.6,-1.9c-0.5,-0.5,-1,-1.1,-1.4,-1.5l-1.5,-1.6c0,0,1.6,1.7,3.9,4.2c1,1.4,2.2,3,3.6,4.8c0.3,0.4,0.6,0.8,0.9,1.3c0.3,0.5,0.6,0.9,0.9,1.4c0.6,1,1.2,2,1.8,3c1.3,1.9,2.2,4.1,3.2,6.1c0.4,1,0.9,2,1.3,3c0.3,0.9,0.7,1.9,1,2.7c0.5,1.8,1.1,3.3,1.4,4.5c0.2,1.2,0.4,2,0.4,2.3c0,0,1.4,3.8,0.4,-0.1c-0.1,-0.4,-0.3,-1,-0.5,-1.8c-0.1,-0.3,-0.2,-0.8,-0.4,-1.2c-0.1,-0.4,-0.3,-0.9,-0.5,-1.4c-0.4,-1,-0.9,-2.2,-1.5,-3.5c-0.3,-0.7,-0.5,-1.4,-0.9,-2.1c-0.4,-0.8,-0.8,-1.6,-1.3,-2.4c-0.9,-1.6,-1.8,-3.5,-3.2,-5.4c-0.6,-1,-1.3,-2,-2.1,-3.1c-0.3,-0.5,-0.7,-1.1,-1.1,-1.6c-0.4,-0.5,-0.9,-1.1,-1.3,-1.6c-1,-1.1,-1.9,-2.2,-2.9,-3.4c-1,-1.2,-2.3,-2.3,-3.5,-3.5c-1.2,-1.2,-2.4,-2.5,-3.9,-3.6c-1.5,-1.1,-2.9,-2.4,-4.5,-3.6c0,0,-2,-1.3,-5.7,-4c-2,-1.1,-4.5,-2.6,-7.5,-4.1c-3.2,-1.3,-6.7,-3.1,-11.1,-4.2C234.9,84.9,223.7,83.2,210.7,85c-6.4,1,-13.4,2.6,-20.2,5.8c-0.8,0.4,-1.7,0.8,-2.6,1.2c-0.8,0.4,-1.6,0.9,-2.5,1.4c-0.8,0.4,-1.7,0.9,-2.5,1.4l-1.3,0.7c-0.4,0.2,-0.8,0.5,-1.3,0.8c-1.6,1.1,-3.3,2.3,-5,3.4c-1.5,1.3,-3.1,2.7,-4.7,4c-6.3,5.6,-12,12.6,-16.4,20.7c-4.4,8.2,-7.6,17.5,-8.7,27.5c-1.2,10,-0.5,20.6,2.7,30.9c3.2,10.3,8.7,20.3,16.3,28.8c3.8,4.3,8.3,7.9,13,11.4c1.2,0.8,2.5,1.5,3.7,2.3l1.9,1.1c0.6,0.4,1.2,0.8,1.9,1.1c1.3,0.6,2.7,1.3,4,1.9l2,1l2.1,0.7c1.4,0.5,2.8,1,4.2,1.5c0.7,0.3,1.5,0.5,2.2,0.6l2.2,0.6c1.5,0.3,2.9,0.7,4.4,1c1.5,0.2,3,0.4,4.5,0.6l2.3,0.3c0.7,0.1,1.5,0.1,2.2,0.1c1.6,0.1,3.1,0.1,4.6,0.2c1.5,0,3.1,-0.2,4.6,-0.2c1.5,-0.2,3.1,-0.1,4.6,-0.5c1.5,-0.2,3,-0.5,4.5,-0.7l1.2,-0.2l1.1,-0.3l2.2,-0.7l2.3,-0.6c0.7,-0.1,1.5,-0.4,2.2,-0.7c1.5,-0.5,2.9,-1.1,4.4,-1.6l1.1,-0.4c0.3,-0.2,0.7,-0.4,1,-0.6l2.1,-1l2.1,-1.1l1.1,-0.5l1,-0.6c1.3,-0.8,2.6,-1.7,4,-2.5c0.7,-0.4,1.3,-0.9,1.9,-1.3L263,221c2.6,-1.8,4.8,-4.1,7.1,-6.2c1.1,-1.1,2.1,-2.4,3.1,-3.6l1.6,-1.7c0.5,-0.6,0.9,-1.3,1.4,-2c0.9,-1.3,1.9,-2.5,2.8,-3.8c0.8,-1.4,1.5,-2.8,2.3,-4.2c0.4,-0.7,0.8,-1.3,1.2,-2l1,-2.2c0.6,-1.5,1.3,-2.9,1.9,-4.4Z" class="g19_3" />
<path d="M302.8,189.7c0,0,-0.5,1.5,-1.5,4.3c-0.3,0.7,-0.6,1.4,-0.9,2.3c-0.3,0.8,-0.7,1.8,-1.2,2.7c-0.9,2,-2,4.2,-3.2,6.7c-1.5,2.3,-3,5,-4.9,7.7c-1,1.3,-2.1,2.7,-3.2,4.1c-0.6,0.7,-1.1,1.5,-1.7,2.2c-0.7,0.7,-1.3,1.4,-2,2.1c-5.1,5.8,-11.9,11.4,-20.2,16.2c-8.2,4.7,-18,8.6,-28.9,10.4c-10.8,1.9,-22.6,1.7,-34.4,-1.1c-11.7,-2.7,-23.2,-8,-33.3,-15.7c-10.1,-7.7,-18.6,-17.8,-24.6,-29.2c0,0,-0.5,-0.7,-1.1,-2.2c-0.6,-1.6,-1.6,-3.8,-2.8,-6.6c-2,-5.9,-4.7,-14.4,-5.4,-25.1c-0.8,-10.6,0.4,-23.4,5,-36.1c4.6,-12.7,12.6,-25.3,23.4,-35.4c10.8,-9.9,24.3,-17.1,38,-20.7c13.8,-3.5,27.8,-3.5,39.6,-1c11.9,2.4,21.6,6.9,28.8,11.2c3.4,2.4,6.5,4.3,8.7,6.2c2.2,1.9,4,3.3,5,4.4c0,0,0.8,0.7,2.1,2c1.2,1.3,3.2,3.1,5.3,5.7c1,1.3,2.1,2.7,3.4,4.2c1.1,1.6,2.2,3.4,3.5,5.2c1.3,1.8,2.3,3.9,3.5,6c0.5,1.1,1.1,2.2,1.7,3.3c0.5,1.1,1,2.3,1.5,3.5c4.1,9.5,6.7,21,6.8,32.3c0.2,11.3,-2.1,22.2,-5.4,31" class="g20_3" />
<path d="M162.4,96.5c-0.8,0.7,-1.9,1.9,-3.4,3.2c-1.4,1.4,-3.1,3.1,-4.8,5.2c-1.7,2.1,-3.8,4.4,-5.5,7.3c-1,1.4,-1.9,2.8,-2.9,4.3c-0.9,1.5,-1.7,3.2,-2.6,4.9c-2,3.3,-3.3,7.1,-4.9,11c-0.7,1.9,-1.2,4,-1.8,6.1c-0.3,1,-0.6,2.1,-0.9,3.1c-0.3,1.1,-0.5,2.2,-0.7,3.3c-1.9,8.6,-2.1,18,-1.2,26.9c0.2,1.2,0.3,2.3,0.5,3.4l0.2,1.7c0.1,0.5,0.2,1.1,0.3,1.6c0.5,2.2,1,4.4,1.4,6.5c0.6,2.2,1.4,4.2,2,6.3c0.6,2,1.5,3.9,2.3,5.8c0.4,1,0.8,1.9,1.2,2.9c0.4,0.9,0.8,1.8,1.3,2.7c1,1.7,1.9,3.4,2.8,5c0.3,0.4,0.5,0.8,0.7,1.2c0.3,0.4,0.5,0.8,0.8,1.2c0.5,0.7,1,1.5,1.5,2.2c1,1.4,1.9,2.9,2.9,4.2c2.1,2.5,4,4.8,5.8,6.7c1.8,1.8,3.5,3.4,4.8,4.8c0.7,0.6,1.3,1.2,1.9,1.6c0.5,0.5,1,0.9,1.4,1.2c0.8,0.6,1.2,0.9,1.2,0.9c5.2,4.4,11.9,8.4,19.5,11.8c2,0.8,4,1.5,6,2.3l1.5,0.6l1.6,0.4c1.1,0.3,2.1,0.6,3.2,0.9c1.1,0.3,2.1,0.6,3.2,0.8c1.1,0.3,2.2,0.4,3.4,0.7c2.2,0.3,4.5,0.7,6.7,1c18.4,1.8,38.3,-2.7,53.2,-12c0.9,-0.6,1.9,-1.2,2.8,-1.7c0.9,-0.6,1.8,-1.3,2.6,-1.9c1.7,-1.3,3.5,-2.4,5,-3.8c1.6,-1.3,3.1,-2.7,4.6,-4l1.1,-1l1,-1.1c0.6,-0.7,1.3,-1.4,1.9,-2.1c5.2,-5.4,8.9,-11.2,11.7,-16.1c2.6,-5,4.6,-9.2,5.5,-12.2c1,-2.9,1.6,-4.6,1.6,-4.6" class="g21_3" />
<path d="M168.9,97.4c0,0,0.5,-0.4,1.4,-1.1c0.4,-0.3,0.9,-0.8,1.6,-1.2c0.6,-0.5,1.4,-1,2.3,-1.6c0.9,-0.6,1.8,-1.2,2.9,-1.9c0.5,-0.4,1,-0.8,1.6,-1.1c0.6,-0.3,1.3,-0.7,1.9,-1c1.3,-0.7,2.7,-1.5,4.2,-2.2c1.4,-0.8,3.1,-1.4,4.7,-2.1c3.4,-1.6,7.2,-2.6,11.3,-3.9c2,-0.4,4.2,-0.9,6.4,-1.3c1.1,-0.3,2.2,-0.4,3.3,-0.5c1.2,-0.2,2.3,-0.3,3.5,-0.4c9.3,-0.9,19.6,-0.1,29.6,2.6c10,2.7,19.7,7.4,27.9,13.6c8.3,6.2,15,13.9,19.9,21.7c1.4,1.9,2.4,3.9,3.4,5.8c0.5,1,1,2,1.5,2.9c0.5,1,0.8,2,1.3,2.9c0.7,2,1.6,3.8,2.2,5.6c0.5,1.9,1.1,3.7,1.6,5.4c0.1,0.4,0.2,0.8,0.4,1.2c0,0.5,0.1,0.9,0.2,1.3c0.2,0.8,0.3,1.6,0.5,2.4c0.3,1.6,0.6,3.1,0.8,4.5c0.3,2.8,0.5,5.3,0.7,7.3" class="g21_3" />
<path d="M150.6,134c0,0,0.3,-0.6,0.7,-1.7c0.2,-0.5,0.5,-1.2,0.8,-2c0.3,-0.7,0.9,-1.6,1.4,-2.6c0.5,-0.9,1.1,-2,1.7,-3.2c0.3,-0.5,0.6,-1.2,1,-1.8c0.4,-0.5,0.8,-1.2,1.3,-1.8c0.8,-1.3,1.7,-2.6,2.7,-4c1.1,-1.4,2.3,-2.7,3.5,-4.2C168.6,107,175.3,101,183.5,96.3c8.3,-4.7,18.1,-8.1,28.2,-9.4c10.2,-1.3,20.7,-0.4,30.1,2.3c9.4,2.6,17.8,6.9,24.4,11.9c1.6,1.2,3.1,2.5,4.6,3.7c0.7,0.7,1.4,1.2,2.1,1.9c0.6,0.6,1.2,1.3,1.8,1.9c0.6,0.6,1.2,1.2,1.8,1.8c0.6,0.6,1.1,1.2,1.6,1.8c1,1.2,1.9,2.4,2.7,3.5c0.5,0.5,0.9,1,1.3,1.5c0.3,0.5,0.6,1.1,0.9,1.5c0.7,1,1.2,1.9,1.7,2.7c0.5,0.7,1,1.4,1.3,2c0.3,0.6,0.5,1.1,0.7,1.4" class="g20_3" />
<path d="M242.5,118.2c0,0,-0.6,0.4,-1,0.4c-0.4,-0.1,-0.6,-0.6,0.3,-2.5l0.6,-3.4c0,0,-0.2,-0.8,-0.4,-1.5c-0.2,-0.8,-0.4,-1.5,-0.4,-1.5l1.4,-2.1c0,0,0.3,0.1,1.6,0.5c0.6,0.2,1.6,0.5,2.8,1c1.2,0.5,2.7,1.2,4.6,2.1c3.7,2.1,9.1,5.2,15,11.5c1.5,1.7,3.1,3.3,4.5,5.4c0.7,1,1.6,2.1,2.3,3.2c0.6,1.2,1.3,2.4,2.1,3.6c2.7,5.1,5.1,11.2,6.4,18.5c0,0,0.2,1.5,0.7,4.1c0.2,1.4,0.2,3.1,0.4,5c0,0.5,0.1,1,0.1,1.5c-0.1,0.6,-0.1,1.1,-0.1,1.7c0,1.1,-0.1,2.3,-0.1,3.5c-0.6,5,-1.5,11.1,-4.2,17.3c-2.6,6.4,-6.6,13,-12.3,18.9c0,0,-0.7,0.6,-1.9,1.9c-0.6,0.6,-1.5,1.2,-2.4,2c-1,0.8,-2.1,1.8,-3.4,2.7c-5.2,3.9,-13.5,8.5,-24.6,10.7c-10.9,2.3,-24.6,1.4,-37.5,-4.4c-6.4,-3,-12.5,-7.2,-17.8,-12.5c-5.2,-5.2,-9.6,-11.6,-12.7,-18.5c-6.2,-13.9,-6.8,-30.3,-2,-44c4.6,-13.8,13.9,-25,24.2,-31.4c0.6,-0.4,1.2,-0.8,1.8,-1.2c0.7,-0.4,1.3,-0.7,2,-1.1c1.3,-0.7,2.5,-1.4,3.8,-2c2.6,-1,5,-2.2,7.5,-2.8c1.2,-0.4,2.4,-0.8,3.6,-1.1c1.2,-0.2,2.3,-0.4,3.4,-0.7c0.6,-0.1,1.2,-0.2,1.7,-0.3c0.6,0,1.1,-0.1,1.6,-0.2c1.1,-0.1,2.1,-0.2,3.1,-0.3c4,-0.2,7.3,-0.1,10,0.3c1.3,0.1,2.4,0.2,3.3,0.4c0.9,0.2,1.6,0.4,2.2,0.5c0,0,-0.6,-0.1,-1.6,-0.3c-1,-0.2,-2.6,-0.3,-4.5,-0.5c-4,-0.4,-9.7,-0.4,-16.4,0.9c-6.6,1.3,-14.3,4,-21.5,8.8c-7.2,4.7,-14,11.4,-18.7,19.5c-4.8,8.1,-7.6,17.4,-8.3,26.4c-0.8,9,0.7,17.6,3.2,24.7c2.5,7.1,6,12.6,8.9,16.6c1.6,1.8,2.9,3.4,4,4.6c1.1,1.1,2,1.8,2.4,2.2c0,0,-0.4,-0.4,-1.1,-1.1c-0.4,-0.4,-0.8,-0.8,-1.3,-1.4c-0.6,-0.5,-1.1,-1.2,-1.7,-1.9c-0.6,-0.8,-1.3,-1.6,-2,-2.5c-0.7,-0.9,-1.4,-2,-2.1,-3.1c-0.8,-1.1,-1.6,-2.3,-2.2,-3.7c-0.7,-1.3,-1.5,-2.7,-2.2,-4.2c-2.8,-6,-5,-13.5,-5.5,-21.9c-0.5,-8.3,0.9,-17.3,4.2,-25.6c3.3,-8.3,8.6,-15.8,14.8,-21.6c6.3,-5.8,13.4,-9.9,20.1,-12.2c6.7,-2.4,12.8,-3.1,17.5,-3.4c2.3,0.1,4.3,0.1,5.8,0.2c1.6,0.2,2.7,0.4,3.3,0.5c0,0,-0.5,0,-1.5,-0.1c-0.9,-0.1,-2.3,-0.3,-4.1,-0.2c-1.7,0,-3.9,0,-6.4,0.3c-1.2,0.2,-2.6,0.2,-3.9,0.5c-1.4,0.3,-2.9,0.6,-4.4,0.9c-5.9,1.5,-12.7,4.3,-19.2,8.8c-6.4,4.5,-12.4,10.7,-16.7,18.1c-4.4,7.4,-7,15.8,-7.8,24c-0.9,8.2,0.2,16.2,2.3,22.8c1,3.4,2.4,6.3,3.6,9c0.8,1.3,1.5,2.5,2.1,3.7c0.6,1.2,1.5,2.2,2.1,3.1c0.7,1,1.3,1.9,2,2.6c0.6,0.8,1.2,1.4,1.8,2c1.1,1.2,1.9,2.1,2.5,2.5c0,0,-0.1,-0.1,-0.2,-0.3c-0.2,-0.1,-0.5,-0.4,-0.7,-0.7c-0.6,-0.7,-1.4,-1.7,-2.4,-3c-0.3,-0.3,-0.5,-0.6,-0.8,-1c-0.3,-0.4,-0.5,-0.8,-0.8,-1.2c-0.6,-0.8,-1.2,-1.7,-1.8,-2.7c-0.7,-0.9,-1.2,-2,-1.8,-3.2c-0.6,-1.1,-1.3,-2.3,-1.8,-3.6c-2.4,-5.2,-4.2,-11.7,-4.8,-18.8c-0.6,-7.1,0.3,-14.9,2.7,-22.3c2.4,-7.4,6.4,-14.3,11.4,-19.9c4.9,-5.6,10.8,-9.9,16.5,-12.7c5.7,-2.8,11.1,-4.5,15.5,-5c2.2,-0.5,4.1,-0.5,5.7,-0.6c1.5,-0.1,2.8,0,3.6,0.1c0,0,-0.3,0,-0.9,0c-0.6,-0.1,-1.5,0,-2.5,0.1c-1.1,0.1,-2.3,0.2,-3.7,0.3c-1.3,0.3,-2.8,0.6,-4.3,0.9c-6,1.3,-12.3,4.2,-14.7,5.8c0,0,0.6,-0.2,1.4,-0.7c0.9,-0.3,2,-1,3.2,-1.4c1.2,-0.5,2.3,-0.9,3.2,-1.2c0.5,-0.2,0.8,-0.3,1.1,-0.4c0.2,-0.1,0.4,-0.1,0.4,-0.1c0,0,-0.2,0,-0.7,0.2c-0.4,0.2,-0.9,0.4,-1.6,0.7c-1.4,0.6,-3.3,1.4,-5,2.4c-0.9,0.5,-1.8,1,-2.7,1.4c-0.7,0.6,-1.5,1,-2.1,1.5c-1.3,0.8,-2.1,1.4,-2.1,1.4c0,0,-0.1,0.1,-0.3,0.2c-0.2,0.2,-0.5,0.4,-0.9,0.7c-0.7,0.5,-1.6,1.2,-2.5,1.9c-1,0.7,-1.8,1.6,-2.4,2.2c-0.7,0.6,-1.1,1,-1.1,1c0,0,1.2,-1.1,3,-2.7c0.9,-0.8,2,-1.6,3.3,-2.5c0.3,-0.3,0.6,-0.5,0.9,-0.7c0.3,-0.2,0.7,-0.4,1,-0.6c0.7,-0.4,1.4,-0.9,2.1,-1.3c1.3,-0.9,2.9,-1.5,4.3,-2.2c0.7,-0.3,1.3,-0.7,2,-0.9c0.7,-0.3,1.4,-0.5,2,-0.7c1.2,-0.4,2.2,-0.8,3.1,-1c0.8,-0.2,1.4,-0.3,1.6,-0.3c0,0,2.6,-1,0,-0.3c-0.7,0.2,-1.8,0.4,-3.1,1c-0.8,0.3,-1.6,0.7,-2.5,1c-1,0.4,-2,1,-3.1,1.6c-2.4,1.2,-5.1,2.9,-8.3,5.4c-0.7,0.7,-1.5,1.3,-2.4,2c-0.8,0.7,-1.5,1.6,-2.4,2.4c-1.7,1.7,-3.2,3.8,-5,6c0,0,-0.9,1.3,-2.8,4c-0.8,1.4,-1.8,3.1,-2.9,5.2c-0.9,2.2,-2.1,4.7,-3,7.8c-1.8,5.9,-2.9,13.8,-1.7,22.9c0.8,4.5,1.9,9.3,4.1,14.1c2.2,4.7,5,9.6,9,13.9c4,4.4,8.8,8.4,14.5,11.5c5.7,3.1,12.3,5.3,19.3,6.1c7,0.8,14.4,0.3,21.6,-1.9c7.2,-2.2,14.2,-6.1,20.1,-11.4c12,-10.5,19,-27.9,16.6,-45.1c-1.2,-8.5,-4.5,-16.9,-10,-23.9c-5.3,-7,-12.8,-12.4,-21.1,-15.6Z" class="g19_3" />
<path d="M241.7,106c0,0,1.1,0.3,3,1.1c1,0.4,2.2,0.7,3.5,1.4c1.4,0.6,2.9,1.4,4.7,2.2c1.6,1.1,3.5,2.2,5.4,3.5c0.9,0.7,1.9,1.4,2.9,2.2c0.5,0.4,1,0.8,1.5,1.2c0.5,0.4,1,0.9,1.5,1.4c4,3.6,7.9,8.3,11.3,14.1c3.3,5.8,6,12.6,7.3,20.2c1.3,7.6,1.2,15.9,-0.7,24.1c-2,8.2,-5.7,16.3,-11.1,23.4c-5.4,7,-12.4,13,-20.4,17.2c0,0,-0.5,0.3,-1.6,0.7c-1,0.5,-2.6,1.2,-4.6,2c-4,1.4,-10,3.3,-17.5,3.8c-7.4,0.5,-16.4,-0.3,-25.3,-3.5c-8.9,-3.2,-17.7,-8.8,-24.7,-16.4c-7,-7.6,-12.1,-17,-14.6,-26.6c-2.4,-9.7,-2.4,-19.4,-0.7,-27.7c1.7,-8.3,4.9,-15.2,7.9,-20.2c3.1,-4.9,6,-8.1,7.4,-9.6c0,0,0.5,-0.5,1.4,-1.4c0.9,-0.9,2.1,-2.3,4,-3.7c0.9,-0.7,1.9,-1.5,2.9,-2.4c1.2,-0.8,2.4,-1.6,3.7,-2.5c1.2,-0.9,2.7,-1.6,4.2,-2.4c0.7,-0.4,1.5,-0.8,2.3,-1.2c0.8,-0.4,1.6,-0.7,2.4,-1.1c6.7,-2.8,14.7,-4.7,22.6,-4.7c7.9,-0.2,15.6,1.5,21.7,3.8" class="g20_3" />
<path d="M176.5,204.2c0.5,0.6,1.3,1.4,2.2,2.4c1,1,2.2,2.2,3.7,3.4c1.5,1.2,3.1,2.6,5,3.9c1,0.6,2,1.3,3.1,2c1.1,0.6,2.2,1.2,3.4,1.8c2.3,1.4,5,2.3,7.7,3.4c1.4,0.5,2.8,0.9,4.3,1.3c0.7,0.2,1.4,0.4,2.2,0.6c0.7,0.2,1.5,0.3,2.2,0.5c6.1,1.3,12.6,1.5,18.9,0.8c1.6,-0.2,3.2,-0.3,4.7,-0.7c1.5,-0.3,3.1,-0.6,4.6,-1c2.9,-0.9,5.8,-1.7,8.4,-2.9c1.3,-0.7,2.7,-1.1,3.9,-1.8c1.2,-0.7,2.4,-1.3,3.5,-2c1.2,-0.6,2.2,-1.4,3.2,-2.1c1.1,-0.7,2.1,-1.3,3,-2c1.7,-1.5,3.3,-2.8,4.7,-4c1.3,-1.3,2.4,-2.5,3.3,-3.4c0.9,-0.9,1.5,-1.8,2,-2.3c0.4,-0.6,0.6,-0.9,0.6,-0.9c3.1,-3.6,5.9,-8.3,8.3,-13.6c2.3,-5.4,3.9,-11.5,4.6,-18c1.3,-12.8,-1.8,-26.7,-8.4,-37.2c-0.4,-0.6,-0.7,-1.3,-1.1,-1.9c-0.4,-0.7,-0.9,-1.3,-1.3,-1.9c-0.9,-1.2,-1.8,-2.4,-2.7,-3.5c-1,-1.1,-1.9,-2.1,-2.8,-3.2c-0.9,-1,-2,-1.9,-2.9,-2.8c-3.9,-3.6,-7.9,-6.2,-11.3,-8.2c-3.5,-1.8,-6.4,-3.1,-8.6,-3.8c-2,-0.7,-3.2,-1.1,-3.2,-1.1" class="g21_3" />
<path d="M177.1,199.7c0,0,-0.2,-0.3,-0.7,-1c-0.3,-0.3,-0.6,-0.6,-0.9,-1.1c-0.3,-0.4,-0.7,-1,-1.1,-1.6c-0.8,-1.2,-1.9,-2.6,-2.8,-4.5c-0.5,-0.9,-1,-1.9,-1.6,-2.9c-0.5,-1,-0.9,-2.2,-1.5,-3.3c-4.2,-9.3,-6.3,-23.8,-2.4,-37.9c1.9,-7,5.2,-13.8,9.6,-19.5c4.3,-5.8,9.7,-10.5,15.1,-14c5.5,-3.4,11,-5.7,15.8,-6.9c1.2,-0.4,2.4,-0.6,3.5,-0.8c1.1,-0.2,2.1,-0.5,3.1,-0.6c2,-0.2,3.7,-0.3,5.1,-0.5" class="g21_3" />
<path d="M202.7,212.5c0,0,-0.4,-0.2,-1.1,-0.5c-0.8,-0.3,-1.9,-0.7,-3.2,-1.5c-1.4,-0.8,-3.1,-1.5,-4.8,-2.8c-0.9,-0.6,-1.9,-1.2,-2.9,-1.9c-0.9,-0.8,-1.9,-1.6,-2.9,-2.4c-4,-3.5,-8.1,-8.2,-11.4,-13.9c-3.4,-5.8,-5.8,-12.7,-6.6,-19.8c-1,-7.1,-0.3,-14.4,1.5,-21c1.9,-6.6,4.9,-12.5,8.4,-17.1c0.8,-1.1,1.8,-2.2,2.6,-3.2c0.8,-1,1.8,-1.9,2.6,-2.8c0.9,-0.8,1.7,-1.7,2.6,-2.3c0.8,-0.7,1.6,-1.4,2.4,-2c0.4,-0.3,0.7,-0.5,1.1,-0.8c0.3,-0.2,0.7,-0.5,1,-0.7c0.7,-0.4,1.3,-0.8,1.9,-1.2c0.5,-0.3,1,-0.6,1.4,-0.9c0.4,-0.2,0.8,-0.3,1,-0.5" class="g20_3" />
<path d="M234.3,193.9c0,0,0.1,-0.5,0.3,-0.7c0.3,-0.1,0.6,0,1.1,1.4l1.4,2c0,0,0.5,0.3,0.9,0.5c0.5,0.3,1,0.6,1,0.6l0.3,1.7c0,0,-0.2,0.1,-1,0.5c-0.4,0.2,-1,0.6,-1.9,0.9c-0.8,0.4,-1.9,0.7,-3.3,1.3c-2.9,0.7,-7.1,1.9,-13.2,1.7c-1.5,-0.1,-3.1,-0.1,-4.8,-0.4c-0.9,-0.2,-1.8,-0.3,-2.7,-0.5c-0.9,-0.3,-1.9,-0.5,-2.9,-0.8c-3.8,-1.1,-8,-2.9,-12.3,-5.9c0,0,-0.8,-0.6,-2.4,-1.7c-1.5,-1.2,-3.6,-3,-5.9,-5.7c-2.2,-2.7,-4.7,-6.2,-6.5,-10.6c-1.9,-4.4,-3.2,-9.7,-3.2,-15.4c0,0,0,-0.7,0,-1.9c-0.1,-0.6,0.1,-1.4,0.1,-2.2c0.1,-0.9,0.2,-1.9,0.4,-3c0.6,-4.5,2.5,-10.9,6.8,-17.5c4.3,-6.5,11.6,-12.9,20.8,-16.4c4.7,-1.7,9.8,-2.6,15,-2.6c5.2,0,10.5,1,15.5,2.9c9.9,3.8,18.3,11.6,22.7,20.8c4.6,9.1,5.5,19.2,3.6,27.5c-0.1,0.5,-0.2,1,-0.3,1.5c-0.1,0.5,-0.3,1,-0.4,1.5c-0.4,1,-0.6,1.9,-0.9,2.9c-0.8,1.8,-1.5,3.5,-2.4,5.1c-1.6,3.2,-3.6,5.8,-5.4,7.9c-1.8,2.1,-3.5,3.7,-5,4.8c-0.7,0.6,-1.3,1.1,-1.9,1.4c-0.5,0.4,-1,0.6,-1.3,0.8c0,0,0.3,-0.2,0.9,-0.6c0.7,-0.4,1.5,-1.1,2.5,-2c2.2,-1.7,5,-4.5,7.7,-8.5c2.7,-3.9,5.1,-9.1,6.3,-15c1.2,-5.9,1.3,-12.6,-0.4,-18.9c-1.7,-6.4,-4.8,-12.4,-8.9,-17.2c-4.1,-4.8,-9.1,-8.4,-13.9,-10.6c-4.7,-2.3,-9.2,-3.3,-12.6,-3.8c-1.7,-0.2,-3.1,-0.3,-4.2,-0.3c-1.1,0,-1.9,0,-2.3,0c0,0,0.3,0.1,1.1,0.1c0.7,0,1.7,0,3.1,0.1c0.7,0.1,1.4,0.2,2.2,0.3c0.8,0.1,1.7,0.3,2.6,0.4c1.8,0.4,3.9,1,6.1,1.8c4.3,1.5,9.1,4.2,13.5,8.1c4.4,3.8,8.1,9,10.6,14.7c2.5,5.8,3.6,12.1,3.4,18.1c-0.2,6,-1.8,11.5,-3.9,16c-2.1,4.5,-4.8,7.9,-7,10.3c-1.2,1.1,-2.2,2.1,-3,2.8c-0.9,0.6,-1.5,1.1,-1.9,1.3c0,0,0.3,-0.2,0.8,-0.6c0.5,-0.4,1.3,-1,2.1,-2c0.9,-0.8,2,-1.9,3.1,-3.3c1.1,-1.3,2.2,-3,3.4,-4.8c2.2,-3.7,4.2,-8.4,5.1,-13.8c1,-5.4,0.9,-11.5,-0.6,-17.3c-1.5,-5.8,-4.4,-11.2,-8,-15.7c-3.7,-4.5,-8.2,-7.9,-12.5,-10.2c-4.3,-2.2,-8.5,-3.4,-11.7,-3.9c-0.8,-0.1,-1.6,-0.3,-2.2,-0.3c-0.7,-0.1,-1.4,-0.1,-1.9,-0.1c-1.1,-0.1,-2,-0.1,-2.5,0c0,0,0.4,0,1,0c0.6,0.1,1.5,0.2,2.6,0.3c2.3,0.3,5.5,1,9.3,2.4c3.7,1.3,7.8,3.7,11.6,6.9c3.9,3.3,7.3,7.5,9.8,12.4c2.4,4.8,3.9,10.2,4.2,15.4c0.3,5.3,-0.5,10.3,-1.9,14.5c-1.5,4.2,-3.3,7.7,-5.2,10.2c-0.9,1.3,-1.8,2.2,-2.5,3.1c-0.8,0.8,-1.4,1.4,-1.9,1.7c0,0,0.2,-0.1,0.5,-0.4c0.3,-0.3,0.7,-0.7,1.2,-1.3c0.4,-0.6,1,-1.3,1.6,-2c0.5,-0.8,1.1,-1.7,1.7,-2.5c2.4,-3.7,4,-8.2,4.4,-10.2c0,0,-0.1,0.4,-0.4,1c-0.2,0.6,-0.4,1.5,-0.8,2.3c-0.4,0.8,-0.7,1.6,-1,2.2c-0.3,0.6,-0.5,1,-0.5,1c0,0,0.1,-0.2,0.2,-0.5c0.1,-0.2,0.3,-0.7,0.5,-1.2c0.4,-0.9,1,-2.2,1.3,-3.6c0.2,-0.7,0.4,-1.4,0.6,-2c0.1,-0.6,0.2,-1.3,0.3,-1.8c0.2,-1,0.4,-1.7,0.4,-1.7c0,0,0,-0.4,0.1,-1c0.1,-0.6,0.2,-1.4,0.3,-2.3c0.2,-0.8,0.1,-1.6,0.2,-2.2c0,-0.6,0,-1,0,-1c0,0,-0.1,1.1,-0.1,2.8c-0.3,1.6,-0.5,3.9,-1.2,6.1c-1.1,4.4,-3.4,8.5,-3.9,8.9c0,0,-0.8,1.9,0.2,0.2c0.5,-0.9,1.4,-2.6,2.5,-6.1c1.1,-3.5,2.3,-8.9,1.1,-16.7c0,0,-0.2,-1.2,-0.5,-3.4c-0.3,-1.1,-0.7,-2.5,-1.2,-4c-0.7,-1.6,-1.3,-3.4,-2.4,-5.3c-2,-3.9,-5.3,-8.4,-10.5,-12.2C240,127.6,233,124.4,224.8,124c-8.2,-0.5,-17.7,1.8,-25.4,8c-3.9,3,-7.3,7,-9.8,11.6c-2.5,4.7,-4,10,-4.3,15.6c-0.8,11.2,4.4,23.2,14.1,30.6c4.8,3.6,10.6,6.1,16.7,6.8c6.1,0.9,12.5,-0.2,18.2,-2.7Z" class="g19_3" />
<path d="M240.8,199.6c0,0,-0.7,0.3,-2,0.9c-0.7,0.3,-1.5,0.7,-2.5,1.1c-1,0.3,-2.1,0.7,-3.4,1.1c-1.3,0.3,-2.8,0.7,-4.4,1c-1.6,0.2,-3.4,0.6,-5.3,0.5c-3.8,0.3,-8.1,-0.1,-12.6,-1.3c-4.5,-1.2,-9.2,-3.3,-13.6,-6.4c-4.4,-3.1,-8.5,-7.3,-11.6,-12.3c-3.1,-5,-5.2,-10.9,-6,-17c-0.9,-6.2,-0.3,-12.6,1.5,-18.7c0,0,0.1,-0.4,0.4,-1.1c0.3,-0.8,0.8,-1.9,1.3,-3.3c1.4,-2.7,3.4,-6.6,6.8,-10.5c3.5,-4,8.3,-8,14.3,-10.8c6,-2.8,13.1,-4.4,20.3,-4.2c7.3,0.3,14.4,2.5,20.4,6c6,3.6,10.8,8.4,14.1,13.4c3.3,4.9,5.1,9.9,6.1,13.9c0.9,4,1,6.9,1.1,8.4c0,0,0,0.5,0,1.4c0,0.9,0,2.2,-0.2,3.8c0,0.8,-0.1,1.7,-0.2,2.6c-0.2,1,-0.4,2,-0.6,3c-0.2,1.1,-0.6,2.2,-0.9,3.3c-0.2,0.6,-0.3,1.2,-0.5,1.8c-0.3,0.6,-0.5,1.1,-0.7,1.7c-1.9,4.7,-5,9.6,-8.9,13.6c-3.8,3.9,-8.4,6.9,-12.6,8.8" class="g20_3" />
<path d="M224.4,118.6c-2.1,-0.1,-8.1,-0.3,-15.3,2c-7.1,2.1,-15.2,7.2,-20.7,14.2c-1.5,1.7,-2.6,3.6,-3.8,5.4c-0.9,1.9,-2,3.8,-2.7,5.7c-1.6,3.7,-2.3,7.4,-2.8,10.6c-0.1,1.5,-0.3,3,-0.3,4.3c0,1.3,0,2.4,0,3.3c0,0.9,0.1,1.6,0.2,2.1c0,0.5,0.1,0.8,0.1,0.8c0.2,3.3,1.2,7,2.6,10.8c1.6,3.8,3.8,7.7,6.6,11.2c5.8,7,14.2,12.3,22.6,14.3c4.1,1,8.3,1.4,12,1.2c3.7,-0.1,6.9,-0.9,9.6,-1.6c2.6,-0.8,4.7,-1.6,6.1,-2.3c1.4,-0.7,2.2,-1,2.2,-1" class="g21_3" />
<path d="M226.4,121.2c0,0,0.3,0,0.8,0.1c0.5,0,1.3,0.2,2.3,0.4c1,0.2,2.3,0.3,3.7,0.8c0.7,0.2,1.4,0.4,2.2,0.7c0.7,0.2,1.5,0.6,2.4,0.9c6.6,2.5,14.9,8.6,19.9,17.5c2.5,4.4,4.2,9.4,4.9,14.4c0.8,5.1,0.4,10,-0.6,14.4c-1,4.4,-2.6,8.3,-4.3,11.3c-0.9,1.5,-1.9,2.8,-2.6,3.9c-0.9,1.1,-1.7,2,-2.3,2.8" class="g21_3" />
<path d="M207.3,127.5c0,0,0.3,-0.1,0.9,-0.3c0.5,-0.2,1.3,-0.6,2.3,-0.8c1,-0.3,2.3,-0.8,3.8,-1c0.7,-0.2,1.5,-0.3,2.3,-0.5c0.8,-0.1,1.7,-0.1,2.6,-0.2c3.7,-0.3,8.1,0,12.6,1.2c4.5,1.2,9.1,3.4,13,6.5c4,3.1,7.3,7,9.7,11.2c2.3,4.2,3.7,8.6,4.3,12.6c1.1,8,-0.7,13.9,-1.1,15.3" class="g20_3" />
<path d="M214.2,140c0,0,-0.3,1.4,-1,-0.5l-1,-1.4c0,0,-0.3,-0.2,-0.6,-0.4c-0.4,-0.1,-0.7,-0.3,-0.7,-0.3l-0.2,-1.2c0,0,0.1,-0.1,0.7,-0.4c0.3,-0.2,0.7,-0.4,1.3,-0.6c0.6,-0.3,1.4,-0.5,2.4,-0.9c1.9,-0.5,4.9,-1.4,9.1,-1.2c4.2,0.1,10,1.2,15.9,5.3c0,0,0.6,0.4,1.7,1.2c1.1,0.9,2.6,2.1,4.2,4c1.5,1.9,3.3,4.3,4.5,7.4c1.3,3.1,2.2,6.8,2.3,10.8c0,0,0,0.5,0,1.3c-0.1,0.9,-0.2,2.1,-0.4,3.7c-0.4,3.1,-1.7,7.6,-4.8,12.2c-3,4.6,-8.1,9,-14.5,11.5c-6.5,2.4,-14.4,2.5,-21.3,-0.2c-7,-2.7,-12.9,-8.1,-16,-14.6c-3.1,-6.3,-3.8,-13.4,-2.5,-19.2c0.6,-2.9,1.6,-5.5,2.8,-7.7c1.1,-2.3,2.5,-4.1,3.8,-5.6c1.3,-1.4,2.5,-2.5,3.5,-3.3c1,-0.8,1.8,-1.3,2.2,-1.6c0,0,-0.2,0.2,-0.6,0.5c-0.5,0.2,-1,0.7,-1.8,1.3c-1.5,1.2,-3.4,3.2,-5.3,6c-1.9,2.8,-3.6,6.4,-4.4,10.5c-0.9,4.1,-0.9,8.8,0.3,13.3c1.1,4.4,3.3,8.6,6.2,12c2.9,3.3,6.4,5.8,9.7,7.4c3.3,1.6,6.5,2.3,8.8,2.7c1.2,0.1,2.2,0.2,3,0.2c0.8,0,1.3,0,1.6,-0.1c0,0,-0.3,0,-0.8,0c-0.5,0,-1.2,0,-2.2,-0.1c-1.8,-0.1,-4.5,-0.6,-7.6,-1.7c-3,-1.1,-6.4,-3,-9.4,-5.7c-3.1,-2.7,-5.7,-6.3,-7.5,-10.3c-1.7,-4,-2.5,-8.5,-2.3,-12.6c0.1,-4.2,1.2,-8.1,2.7,-11.2c3.1,-6.3,7.3,-9.5,8.3,-10.2c0,0,-0.2,0.2,-0.5,0.5c-0.4,0.3,-0.9,0.7,-1.5,1.4c-1.3,1.2,-3,3.1,-4.5,5.6c-1.6,2.6,-3,6,-3.6,9.7c-0.7,3.8,-0.7,8.1,0.4,12.1c1.1,4.1,3,7.9,5.6,11c2.6,3.2,5.7,5.5,8.7,7.1c3.1,1.6,6,2.5,8.2,2.8c1.2,0.2,2.1,0.3,2.9,0.3c0.8,0,1.4,0,1.7,0c0,0,-0.2,0,-0.6,-0.1c-0.5,0,-1.1,-0.1,-1.9,-0.2c-1.6,-0.2,-3.9,-0.6,-6.5,-1.6c-2.6,-1,-5.5,-2.6,-8.1,-4.9c-2.7,-2.2,-5.1,-5.2,-6.8,-8.6c-1.8,-3.4,-2.8,-7.2,-3,-10.8c-0.2,-3.7,0.4,-7.2,1.3,-10.2c2,-5.9,5.5,-9.4,6.7,-10.5c0,0,-0.1,0.1,-0.3,0.3c-0.2,0.2,-0.5,0.5,-0.8,0.9c-0.3,0.4,-0.7,0.9,-1.2,1.4c-0.3,0.6,-0.7,1.2,-1.2,1.8c-1.6,2.5,-2.8,5.8,-3,7.1c0,0,0.1,-0.2,0.2,-0.7c0.2,-0.4,0.3,-1,0.6,-1.6c0.3,-0.5,0.5,-1.1,0.7,-1.5c0.2,-0.4,0.4,-0.7,0.4,-0.7c0,0,-0.1,0.1,-0.2,0.3c-0.1,0.2,-0.2,0.5,-0.3,0.8c-0.3,0.7,-0.7,1.6,-0.9,2.6c-0.2,0.5,-0.3,0.9,-0.5,1.4c0,0.4,-0.1,0.9,-0.2,1.2c-0.1,0.8,-0.2,1.2,-0.2,1.2c0,0,-0.2,1.2,-0.3,2.3c-0.1,0.6,-0.1,1.2,-0.1,1.6c0,0.4,-0.1,0.7,-0.1,0.7c0,0,0.1,-0.8,0.1,-2c0.2,-1.1,0.4,-2.7,0.8,-4.2c0.8,-3.1,2.4,-6,2.8,-6.3c0,0,0.5,-1.3,-0.2,-0.1c-0.3,0.6,-1,1.8,-1.7,4.2c-0.8,2.5,-1.6,6.3,-0.8,11.8c0,0,0.1,0.8,0.4,2.3c0.2,0.8,0.5,1.7,0.8,2.9c0.5,1,0.9,2.3,1.7,3.7c1.4,2.7,3.7,5.8,7.3,8.5c3.6,2.7,8.5,4.8,14.3,5.2c5.7,0.3,12.3,-1.3,17.7,-5.6c2.7,-2.2,5.2,-4.9,6.9,-8.2c1.7,-3.3,2.8,-7,3,-10.9c0.5,-7.8,-3.1,-16.2,-9.8,-21.4c-3.4,-2.5,-7.5,-4.3,-11.8,-4.8c-4.3,-0.6,-8.7,0.1,-12.7,1.9Z" class="g19_3" />
<path d="M209.7,136c0,0,0.5,-0.2,1.4,-0.6c0.9,-0.5,2.3,-1,4.1,-1.6c0.9,-0.2,1.9,-0.4,3,-0.7c1.2,-0.1,2.4,-0.3,3.7,-0.3c2.7,-0.2,5.7,0.1,8.9,1c3.1,0.8,6.4,2.2,9.5,4.4c3.1,2.2,5.9,5.1,8.1,8.6c2.2,3.5,3.7,7.6,4.3,11.9c0.5,4.4,0.2,8.9,-1.2,13.1c0,0,0,0.3,-0.2,0.8c-0.2,0.5,-0.6,1.3,-1,2.3c-0.9,1.9,-2.3,4.6,-4.7,7.4c-2.4,2.7,-5.8,5.5,-10,7.5c-4.2,2,-9.2,3.1,-14.2,2.9c-5.1,-0.2,-10.1,-1.7,-14.3,-4.2c-4.2,-2.5,-7.6,-5.9,-9.9,-9.3c-2.3,-3.5,-3.5,-7,-4.2,-9.8c-0.6,-2.8,-0.7,-4.8,-0.8,-5.9c0,0,0,-0.3,0,-0.9c0,-0.7,0,-1.6,0.1,-2.7c0.1,-2.3,0.8,-5.4,2.1,-8.7c1.3,-3.3,3.5,-6.7,6.2,-9.5c2.7,-2.8,5.9,-4.9,8.8,-6.2" class="g20_3" />
<path d="M221.1,192.7c1.5,0.1,5.7,0.3,10.7,-1.4c5,-1.5,10.7,-5,14.5,-9.9c4,-4.8,5.9,-10.8,6.5,-15.2c0.1,-1.1,0.2,-2.1,0.3,-3C253,162.3,253,161.5,253,160.9c0,-0.7,-0.1,-1.2,-0.1,-1.5c0,-0.3,0,-0.5,0,-0.5c-0.2,-2.3,-0.9,-5,-1.9,-7.6c-1.1,-2.7,-2.7,-5.4,-4.6,-7.8c-4,-4.9,-9.9,-8.7,-15.8,-10c-5.9,-1.6,-11.4,-0.9,-15.1,0.2c-1.9,0.6,-3.4,1.1,-4.3,1.6c-1,0.5,-1.5,0.7,-1.5,0.7" class="g21_3" />
<path d="M219.7,190.9c0,0,-0.2,0,-0.5,-0.1c-0.4,0,-1,-0.1,-1.7,-0.2c-1.4,-0.3,-3.4,-0.7,-5.7,-1.7c-4.7,-1.8,-10.5,-6.1,-14,-12.3c-1.7,-3.1,-3,-6.6,-3.4,-10.1c-0.5,-3.5,-0.3,-7,0.4,-10.1c1.4,-6.2,4.6,-10.6,6.5,-12.5" class="g21_3" />
<path d="M233.1,186.5c0,0,-0.2,0.1,-0.6,0.2c-0.4,0.2,-0.9,0.4,-1.7,0.6c-0.7,0.2,-1.5,0.5,-2.6,0.7c-0.5,0.1,-1,0.2,-1.6,0.3c-0.6,0.1,-1.2,0.1,-1.9,0.2c-2.6,0.2,-5.6,0,-8.8,-0.9c-3.1,-0.8,-6.3,-2.4,-9.1,-4.5c-2.8,-2.2,-5.1,-4.9,-6.7,-7.9c-1.7,-2.9,-2.7,-6,-3.1,-8.8c-0.7,-5.6,0.5,-9.7,0.8,-10.7" class="g20_3" />

</svg>
